<svg width="104" height="104" viewBox="0 0 104 104" fill="none" xmlns="http://www.w3.org/2000/svg">
<circle cx="52.3145" cy="51.7217" r="51.6514" fill="#EDF3F9"/>
<path d="M64.6048 33.1943C67.2227 31.2321 70.7675 31.2321 73.3854 33.1943L85.9157 42.5863C88.5336 44.5485 89.629 48.0266 88.629 51.2015L83.8429 66.3982C82.843 69.5731 79.9751 71.7227 76.7393 71.7227H61.251C58.0151 71.7227 55.1473 69.5731 54.1473 66.3982L49.3612 51.2015C48.3613 48.0266 49.4567 44.5485 52.0745 42.5863L64.6048 33.1943Z" fill="url(#paint0_linear_3640_9281)"/>
<g style="mix-blend-mode:overlay" opacity="0.5">
<path d="M78.275 61.8204L81.2663 52.0218C81.4924 51.2811 81.5471 50.5149 81.4473 49.7786L73.8284 53.1684C73.2201 53.4373 72.514 53.1705 72.218 52.5598L70.1132 48.2168C69.6525 47.2663 68.3377 47.2663 67.8771 48.2168L65.7722 52.5598C65.4762 53.1705 64.7701 53.4373 64.1618 53.1684L56.5429 49.7786C56.4431 50.5149 56.4978 51.2811 56.7239 52.0218L59.7153 61.8204C60.3402 63.8675 62.1326 65.2535 64.155 65.2535H73.8352C75.8576 65.2535 77.65 63.8675 78.275 61.8204Z" fill="white"/>
</g>
<path opacity="0.5" fill-rule="evenodd" clip-rule="evenodd" d="M15.6338 53.2227C15.6338 51.8419 16.6971 50.7227 18.0088 50.7227H43.2588C44.5705 50.7227 45.6338 51.8419 45.6338 53.2227C45.6338 54.6034 44.5705 55.7227 43.2588 55.7227H18.0088C16.6971 55.7227 15.6338 54.6034 15.6338 53.2227Z" fill="#0346FF"/>
<path fill-rule="evenodd" clip-rule="evenodd" d="M27.6338 45.056C27.6338 43.7673 28.6486 42.7227 29.9005 42.7227H44.2338C45.4856 42.7227 46.5005 43.7673 46.5005 45.056C46.5005 46.3447 45.4856 47.3893 44.2338 47.3893H29.9005C28.6486 47.3893 27.6338 46.3447 27.6338 45.056ZM31.0338 61.3893C31.0338 60.1007 32.0486 59.056 33.3005 59.056H45.3671C46.619 59.056 47.6338 60.1007 47.6338 61.3893C47.6338 62.678 46.619 63.7227 45.3671 63.7227H33.3005C32.0486 63.7227 31.0338 62.678 31.0338 61.3893Z" fill="#0346FF"/>
<defs>
<linearGradient id="paint0_linear_3640_9281" x1="48.9951" y1="31.7227" x2="88.9951" y2="71.7227" gradientUnits="userSpaceOnUse">
<stop offset="0.108859" stop-color="#66D4F7"/>
<stop offset="0.490968" stop-color="#4D92FF"/>
<stop offset="0.849761" stop-color="#BB65FF"/>
</linearGradient>
</defs>
</svg>
