<svg width="47" height="47" viewBox="0 0 47 47" fill="none" xmlns="http://www.w3.org/2000/svg">
<circle cx="23.5" cy="23.5" r="23" stroke="#F3F4F6"/>
<path d="M14 19.8C14 19.4817 14.1264 19.1765 14.3515 18.9515C14.5765 18.7264 14.8817 18.6 15.2 18.6H17.6C17.9183 18.6 18.2235 18.7264 18.4485 18.9515C18.6736 19.1765 18.8 19.4817 18.8 19.8V30.6C18.8 30.9183 18.6736 31.2235 18.4485 31.4485C18.2235 31.6736 17.9183 31.8 17.6 31.8H15.2C14.8817 31.8 14.5765 31.6736 14.3515 31.4485C14.1264 31.2235 14 30.9183 14 30.6V19.8ZM21.2 16.2C21.2 15.8817 21.3264 15.5765 21.5515 15.3515C21.7765 15.1264 22.0817 15 22.4 15H24.8C25.1183 15 25.4235 15.1264 25.6485 15.3515C25.8736 15.5765 26 15.8817 26 16.2V30.6C26 30.9183 25.8736 31.2235 25.6485 31.4485C25.4235 31.6736 25.1183 31.8 24.8 31.8H22.4C22.0817 31.8 21.7765 31.6736 21.5515 31.4485C21.3264 31.2235 21.2 30.9183 21.2 30.6V16.2Z" fill="#111928"/>
<path d="M28.4023 19.8484C28.4023 19.5302 28.5288 19.225 28.7538 18.9999C28.9789 18.7749 29.2841 18.6484 29.6023 18.6484H32.0023C32.3206 18.6484 32.6258 18.7749 32.8509 18.9999C33.0759 19.225 33.2023 19.5302 33.2023 19.8484V30.6484C33.2023 30.9667 33.0759 31.2719 32.8509 31.497C32.6258 31.722 32.3206 31.8484 32.0023 31.8484H29.6023C29.2841 31.8484 28.9789 31.722 28.7538 31.497C28.5288 31.2719 28.4023 30.9667 28.4023 30.6484V19.8484Z" fill="#111928"/>
</svg>
