<svg width="48" height="48" viewBox="0 0 48 48" fill="none" xmlns="http://www.w3.org/2000/svg">
<rect width="48" height="48" rx="8" fill="#E1EFFE"/>
<path d="M13.9312 11.6689C13.6295 11.3774 13.2253 11.2161 12.8058 11.2198C12.3863 11.2234 11.985 11.3917 11.6883 11.6884C11.3917 11.985 11.2234 12.3863 11.2198 12.8058C11.2161 13.2253 11.3774 13.6295 11.6688 13.9313L22.7424 25.0065C22.8224 25.1057 22.9104 25.1953 23.0112 25.2737L34.0672 36.3313C34.2158 36.4799 34.3922 36.5979 34.5863 36.6784C34.7804 36.7588 34.9885 36.8003 35.1987 36.8004C35.4088 36.8005 35.617 36.7591 35.8111 36.6788C36.0053 36.5984 36.1818 36.4806 36.3304 36.3321C36.4791 36.1835 36.597 36.0071 36.6775 35.813C36.758 35.6189 36.7995 35.4108 36.7996 35.2006C36.7996 34.9905 36.7583 34.7824 36.678 34.5882C36.5976 34.394 36.4798 34.2175 36.3312 34.0689L35.2512 32.9889C37.4619 30.2212 38.5751 26.7359 38.3779 23.1992C38.1807 19.6625 36.6871 16.3225 34.1824 13.8177C34.0349 13.6648 33.8583 13.543 33.6631 13.4591C33.4679 13.3752 33.2579 13.3311 33.0455 13.3293C32.833 13.3274 32.6224 13.3679 32.4257 13.4484C32.2291 13.5288 32.0504 13.6476 31.9002 13.7978C31.75 13.9481 31.6312 14.1267 31.5507 14.3233C31.4703 14.52 31.4298 14.7307 31.4316 14.9431C31.4335 15.1556 31.4776 15.3655 31.5615 15.5607C31.6453 15.7559 31.7672 15.9325 31.92 16.0801C33.8246 17.9848 34.9791 20.5119 35.1722 23.1985C35.3652 25.8852 34.5839 28.5514 32.9712 30.7089L30.6752 28.4129C31.692 26.8741 32.146 25.0314 31.9606 23.1964C31.7752 21.3614 30.9617 19.6467 29.6576 18.3425C29.3572 18.042 28.9497 17.8732 28.5248 17.8732C28.1 17.8732 27.6925 18.042 27.392 18.3425C27.0916 18.6429 26.9228 19.0504 26.9228 19.4753C26.9228 19.9001 27.0916 20.3076 27.392 20.6081C28.8704 22.0849 29.184 24.2881 28.3312 26.0721L25.144 22.8849C25.1346 22.8751 25.125 22.8655 25.1152 22.8561L13.9312 11.6705V11.6689ZM13.1808 21.0993C13.2903 20.6891 13.2324 20.2523 13.0198 19.8849C12.8072 19.5175 12.4574 19.2495 12.0472 19.1401C11.6371 19.0306 11.2003 19.0885 10.8329 19.3011C10.4655 19.5137 10.1975 19.8635 10.088 20.2737C8.80805 25.0737 10.048 30.4113 13.8176 34.1825C13.9663 34.331 14.1428 34.4488 14.337 34.5292C14.5311 34.6095 14.7393 34.6509 14.9494 34.6508C15.1596 34.6507 15.3677 34.6092 15.5618 34.5288C15.7559 34.4483 15.9323 34.3303 16.0808 34.1817C16.2294 34.033 16.3472 33.8565 16.4276 33.6624C16.5079 33.4682 16.5492 33.2601 16.5492 33.0499C16.5491 32.8397 16.5076 32.6317 16.4271 32.4375C16.3466 32.2434 16.2287 32.067 16.08 31.9185C14.6892 30.5285 13.689 28.7968 13.1801 26.8975C12.6711 24.9982 12.6714 22.9984 13.1808 21.0993ZM19.84 26.4001C19.74 26.2089 19.6024 26.0399 19.4353 25.9032C19.2683 25.7666 19.0754 25.6652 18.8681 25.6051C18.6609 25.5449 18.4436 25.5274 18.2294 25.5534C18.0152 25.5794 17.8084 25.6485 17.6216 25.7565C17.4348 25.8645 17.2717 26.0091 17.1423 26.1818C17.0128 26.3544 16.9196 26.5515 16.8683 26.761C16.8169 26.9706 16.8085 27.1885 16.8435 27.4014C16.8785 27.6143 16.9563 27.818 17.072 28.0001C17.4144 28.5937 17.84 29.1521 18.344 29.6561C18.6458 29.9475 19.05 30.1088 19.4695 30.1051C19.889 30.1015 20.2903 29.9332 20.587 29.6366C20.8836 29.3399 21.0519 28.9386 21.0555 28.5191C21.0592 28.0996 20.8979 27.6954 20.6064 27.3937C20.3008 27.0881 20.0464 26.7537 19.8416 26.3985L19.84 26.4001Z" fill="#0346FF"/>
</svg>
