<svg width="24" height="25" viewBox="0 0 24 25" fill="none" xmlns="http://www.w3.org/2000/svg">
<path d="M3.055 11.6406H5C5.53043 11.6406 6.03914 11.8513 6.41421 12.2264C6.78929 12.6015 7 13.1102 7 13.6406V14.6406C7 15.1711 7.21071 15.6798 7.58579 16.0548C7.96086 16.4299 8.46957 16.6406 9 16.6406C9.53043 16.6406 10.0391 16.8513 10.4142 17.2264C10.7893 17.6015 11 18.1102 11 18.6406V21.5856M8 4.57562V6.14062C8 6.80367 8.26339 7.43955 8.73223 7.90839C9.20107 8.37723 9.83696 8.64062 10.5 8.64062H11C11.5304 8.64062 12.0391 8.85134 12.4142 9.22641C12.7893 9.60148 13 10.1102 13 10.6406C13 11.1711 13.2107 11.6798 13.5858 12.0548C13.9609 12.4299 14.4696 12.6406 15 12.6406C15.5304 12.6406 16.0391 12.4299 16.4142 12.0548C16.7893 11.6798 17 11.1711 17 10.6406C17 10.1102 17.2107 9.60148 17.5858 9.22641C17.9609 8.85134 18.4696 8.64062 19 8.64062H20.064M15 21.1286V18.6406C15 18.1102 15.2107 17.6015 15.5858 17.2264C15.9609 16.8513 16.4696 16.6406 17 16.6406H20.064M21 12.6406C21 13.8225 20.7672 14.9928 20.3149 16.0848C19.8626 17.1767 19.1997 18.1689 18.364 19.0046C17.5282 19.8403 16.5361 20.5032 15.4442 20.9555C14.3522 21.4078 13.1819 21.6406 12 21.6406C10.8181 21.6406 9.64778 21.4078 8.55585 20.9555C7.46392 20.5032 6.47177 19.8403 5.63604 19.0046C4.80031 18.1689 4.13738 17.1767 3.68508 16.0848C3.23279 14.9928 3 13.8225 3 12.6406C3 10.2537 3.94821 7.96449 5.63604 6.27666C7.32387 4.58884 9.61305 3.64062 12 3.64062C14.3869 3.64063 16.6761 4.58884 18.364 6.27666C20.0518 7.96449 21 10.2537 21 12.6406Z" stroke="#111928" stroke-width="2" stroke-linecap="round" stroke-linejoin="round"/>
</svg>
