<svg width="47" height="47" viewBox="0 0 47 47" fill="none" xmlns="http://www.w3.org/2000/svg">
<circle cx="23.5" cy="23.5" r="23" stroke="#F3F4F6"/>
<path d="M32.5996 24.2016C32.5996 23.8833 32.4732 23.5781 32.2481 23.353C32.0231 23.128 31.7179 23.0016 31.3996 23.0016H28.9996C28.6813 23.0016 28.3761 23.128 28.1511 23.353C27.926 23.5781 27.7996 23.8833 27.7996 24.2016V30.2016C27.7996 30.5198 27.926 30.825 28.1511 31.0501C28.3761 31.2751 28.6813 31.4016 28.9996 31.4016H31.3996C31.7179 31.4016 32.0231 31.2751 32.2481 31.0501C32.4732 30.825 32.5996 30.5198 32.5996 30.2016V24.2016ZM25.3996 19.4016C25.3996 19.0833 25.2732 18.7781 25.0481 18.553C24.8231 18.328 24.5179 18.2016 24.1996 18.2016H21.7996C21.4813 18.2016 21.1761 18.328 20.9511 18.553C20.726 18.7781 20.5996 19.0833 20.5996 19.4016V30.2016C20.5996 30.5198 20.726 30.825 20.9511 31.0501C21.1761 31.2751 21.4813 31.4016 21.7996 31.4016H24.1996C24.5179 31.4016 24.8231 31.2751 25.0481 31.0501C25.2732 30.825 25.3996 30.5198 25.3996 30.2016V19.4016ZM18.1996 15.8016C18.1996 15.4833 18.0732 15.1781 17.8481 14.953C17.6231 14.728 17.3179 14.6016 16.9996 14.6016H14.5996C14.2813 14.6016 13.9761 14.728 13.7511 14.953C13.526 15.1781 13.3996 15.4833 13.3996 15.8016V30.2016C13.3996 30.5198 13.526 30.825 13.7511 31.0501C13.9761 31.2751 14.2813 31.4016 14.5996 31.4016H16.9996C17.3179 31.4016 17.6231 31.2751 17.8481 31.0501C18.0732 30.825 18.1996 30.5198 18.1996 30.2016V15.8016Z" fill="#111928"/>
</svg>
