<svg width="52" height="46" viewBox="0 0 52 46" fill="none" xmlns="http://www.w3.org/2000/svg">
<path d="M37.0745 8.93187C37.0745 5.49398 39.8614 2.70703 43.2993 2.70703C46.7372 2.70703 49.5241 5.49399 49.5241 8.93187V39.5581C49.5241 42.996 46.7372 45.7829 43.2993 45.7829C39.8614 45.7829 37.0745 42.996 37.0745 39.5581V8.93187Z" fill="#8DA2FB"/>
<path d="M1.71289 32.5842C1.71289 29.1463 4.49985 26.3594 7.93773 26.3594C11.3756 26.3594 14.1626 29.1463 14.1626 32.5842V39.556C14.1626 42.9939 11.3756 45.7809 7.93773 45.7809C4.49985 45.7809 1.71289 42.9939 1.71289 39.556V32.5842Z" fill="#8DA2FB"/>
<path d="M4.40163 13.5266C1.97068 11.0957 1.97068 7.15432 4.40163 4.72337C6.83258 2.29242 10.7739 2.29242 13.2049 4.72337L30.4593 21.9777C32.8902 24.4087 32.8902 28.3501 30.4593 30.781C28.0283 33.212 24.087 33.212 21.656 30.781L4.40163 13.5266Z" fill="#8DA2FB"/>
<path d="M38.7954 4.61647C41.2263 2.18552 45.1677 2.18552 47.5987 4.61647C50.0296 7.04742 50.0296 10.9888 47.5986 13.4197L30.3443 30.6741C27.9133 33.105 23.972 33.105 21.541 30.6741C19.1101 28.2431 19.1101 24.3018 21.541 21.8708L38.7954 4.61647Z" fill="#8DA2FB"/>
</svg>
