<svg width="162" height="49" viewBox="0 0 162 49" fill="none" xmlns="http://www.w3.org/2000/svg">
<path fill-rule="evenodd" clip-rule="evenodd" d="M81.7893 25.1288C80.7234 25.1288 79.7463 24.9055 78.858 24.4589C78.3568 24.2012 77.9213 23.8951 77.5516 23.5404C77.3179 23.3162 76.8445 23.4683 76.8445 23.7894V24.2686C76.8445 24.4863 76.6651 24.6628 76.4437 24.6628H74.5212C74.2999 24.6628 74.1204 24.4863 74.1204 24.2686V4.20284C74.1204 3.9851 74.2999 3.80859 74.5212 3.80859H76.4347C76.6561 3.80859 76.8355 3.9851 76.8355 4.20283V11.2652C76.8355 11.5863 77.3101 11.7393 77.5444 11.5158C77.917 11.1604 78.356 10.8537 78.858 10.5957C79.7463 10.1491 80.7234 9.92579 81.7893 9.92579C83.7041 9.92579 85.3228 10.6636 86.6453 12.1393C88.0074 13.6343 88.6884 15.4303 88.6884 17.5273C88.6884 19.6437 88.0074 21.4397 86.6453 22.9153C85.3228 24.391 83.7041 25.1288 81.7893 25.1288ZM81.3452 22.6823C82.648 22.6823 83.7436 22.1969 84.6319 21.2261C85.5202 20.2747 85.9643 19.0418 85.9643 17.5273C85.9643 16.0322 85.5202 14.7993 84.6319 13.8285C83.7436 12.8577 82.648 12.3723 81.3452 12.3723C80.0226 12.3723 78.9172 12.8577 78.0289 13.8285C77.1604 14.7993 76.7261 16.0322 76.7261 17.5273C76.7261 19.0418 77.1604 20.2844 78.0289 21.2552C78.9172 22.2066 80.0226 22.6823 81.3452 22.6823ZM64.7599 25.1288C62.628 25.1288 60.8711 24.4104 59.4893 22.9736C58.1076 21.5368 57.4167 19.7213 57.4167 17.5273C57.4167 15.3527 58.0878 13.5469 59.4301 12.1101C60.7724 10.6539 62.4898 9.92578 64.5822 9.92578C66.7338 9.92578 68.4413 10.6151 69.7047 11.9936C71.0661 13.4358 71.7171 15.6049 71.6318 17.5777C71.6208 17.8307 71.4037 18.0224 71.1463 18.0224H60.6893C60.4213 18.0224 60.204 18.2405 60.2318 18.5028C60.3565 19.6806 60.8196 20.6467 61.6212 21.4009C62.5293 22.2552 63.615 22.6823 64.8783 22.6823C66.4901 22.6823 67.779 21.9468 68.745 20.4759C68.8741 20.2792 69.1311 20.1993 69.345 20.302L70.9726 21.0829C71.202 21.193 71.294 21.4691 71.1611 21.6835C70.5319 22.6982 69.701 23.5069 68.6683 24.1094C67.5234 24.789 66.2206 25.1288 64.7599 25.1288ZM60.5649 15.2465C60.4685 15.5307 60.6961 15.8089 61.0006 15.8089H68.2128C68.4903 15.8089 68.7121 15.5751 68.6558 15.3078C68.4941 14.5402 68.1035 13.8917 67.484 13.3625C66.7536 12.7023 65.7666 12.3722 64.523 12.3722C63.4965 12.3722 62.6082 12.6829 61.8581 13.3042C61.2635 13.8101 60.8324 14.4575 60.5649 15.2465ZM56.5816 10.9392C56.6702 10.6687 56.4652 10.3918 56.1763 10.3918H54.2962C54.1074 10.3918 53.9411 10.5141 53.8877 10.6923L51.1148 19.9508C51.0035 20.3222 50.4717 20.3299 50.3493 19.962L47.2635 10.6805C47.2062 10.5083 47.0429 10.3918 46.8587 10.3918H44.6626C44.4788 10.3918 44.3157 10.5078 44.2581 10.6795L41.1444 19.9681C41.0213 20.3353 40.4903 20.3269 40.3793 19.9561L37.6047 10.6923C37.5514 10.5141 37.3851 10.3918 37.1962 10.3918H35.257C34.9681 10.3918 34.763 10.6687 34.8517 10.9392L39.2554 24.3725C39.3121 24.5455 39.4758 24.6628 39.6607 24.6628H41.7939C41.9789 24.6628 42.1426 24.5454 42.1993 24.3722L45.307 14.8734C45.4262 14.5092 45.9498 14.5086 46.0698 14.8725L49.2039 24.3732C49.2608 24.5459 49.4244 24.6628 49.6089 24.6628H51.7726C51.9574 24.6628 52.1211 24.5455 52.1779 24.3725L56.5816 10.9392ZM140.981 23.8182C141.771 24.5366 142.758 24.8958 143.942 24.8958C144.726 24.8958 145.428 24.8095 146.05 24.6367C146.262 24.5778 146.37 24.3523 146.296 24.148L145.715 22.531C145.637 22.3142 145.388 22.2095 145.165 22.2789C145.104 22.2977 145.042 22.3157 144.978 22.3329C144.781 22.3717 144.574 22.3911 144.356 22.3911C143.883 22.3911 143.458 22.2261 143.083 21.896C142.708 21.5465 142.521 20.896 142.521 19.9446V13.2325C142.521 13.0148 142.7 12.8382 142.921 12.8382H145.673C145.894 12.8382 146.074 12.6617 146.074 12.444V10.786C146.074 10.5683 145.894 10.3918 145.673 10.3918H142.921C142.7 10.3918 142.521 10.2153 142.521 9.99754V4.20283C142.521 3.9851 142.341 3.80859 142.12 3.80859H140.197C139.976 3.80859 139.797 3.9851 139.797 4.20283V9.99754C139.797 10.2153 139.617 10.3918 139.396 10.3918H137.651C137.43 10.3918 137.25 10.5683 137.25 10.786V12.444C137.25 12.6617 137.43 12.8382 137.651 12.8382H139.396C139.617 12.8382 139.797 13.0148 139.797 13.2325V20.8184C139.816 22.0999 140.211 23.0998 140.981 23.8182ZM102.077 23.3813C103.4 22.2164 104.061 20.7601 104.061 19.0127C104.061 17.9447 103.755 16.9836 103.143 16.1293C102.861 15.7231 102.457 15.2068 101.27 14.5524C101.02 14.4142 101.013 14.0459 101.25 13.8861C102.67 12.929 103.38 11.4798 103.38 9.78016C103.38 8.1686 102.778 6.858 101.574 5.84835C100.35 4.79986 98.8398 4.27562 97.0435 4.27562C95.6025 4.27562 94.349 4.65424 93.2831 5.41148C92.3332 6.08623 91.6263 6.94598 91.1624 7.99072C91.0662 8.20721 91.1767 8.45449 91.3978 8.54662L93.081 9.24783C93.3194 9.34713 93.5918 9.22777 93.6987 8.99589C94.3618 7.55769 95.4768 6.83858 97.0435 6.83858C98.1094 6.83858 98.9681 7.11041 99.6195 7.65407C100.271 8.19773 100.597 8.90643 100.597 9.78016C100.597 10.7316 100.251 11.5082 99.5603 12.1101C98.8694 12.6926 97.9811 12.9839 96.8954 12.9839H95.8066C95.5576 12.9839 95.3557 13.1824 95.3557 13.4274V15.0451C95.3557 15.29 95.5576 15.4886 95.8066 15.4886H97.1027C98.2476 15.4886 99.2247 15.8284 100.034 16.5079C100.863 17.1875 101.278 18.0224 101.278 19.0127C101.278 20.0029 100.883 20.8475 100.093 21.5465C99.284 22.2261 98.3266 22.5658 97.2211 22.5658C96.2144 22.5658 95.3459 22.2746 94.6155 21.6921C94.0106 21.1798 93.5487 20.4845 93.2299 19.6064C93.1389 19.3557 92.8557 19.2194 92.6058 19.3218L90.9589 19.9967C90.7478 20.0833 90.6346 20.3122 90.7086 20.5251C91.169 21.8486 91.9679 22.9366 93.1054 23.7891C94.3293 24.6822 95.7012 25.1288 97.2211 25.1288C99.1556 25.1288 100.774 24.5463 102.077 23.3813ZM108.895 20.2941C108.895 19.5175 109.26 18.867 109.99 18.3428C110.74 17.8185 111.668 17.5564 112.774 17.5564C114.192 17.5564 115.318 17.8438 116.152 18.4185C116.265 18.4963 116.328 18.6259 116.321 18.7613C116.267 19.7978 115.815 20.7068 114.965 21.4882C114.076 22.3231 113.06 22.7406 111.915 22.7406C111.106 22.7406 110.395 22.5076 109.783 22.0416C109.191 21.5756 108.895 20.9931 108.895 20.2941ZM117.185 11.5276C116.021 10.4597 114.432 9.92579 112.418 9.92579C109.991 9.92579 108.12 10.7471 106.806 12.3896C106.664 12.5665 106.718 12.8221 106.911 12.942L108.629 14.006C108.811 14.1185 109.049 14.069 109.183 13.9042C110.046 12.8441 111.173 12.314 112.566 12.314C113.573 12.314 114.452 12.6441 115.202 13.3042C115.957 13.9491 116.224 14.7241 116.3 15.5994C116.327 15.9003 115.993 16.0948 115.709 15.9785C114.772 15.5936 113.645 15.4012 112.329 15.4012C110.434 15.4012 108.914 15.8381 107.77 16.7118C106.644 17.5855 106.082 18.7602 106.082 20.2359C106.082 21.6339 106.615 22.7988 107.681 23.7308C108.766 24.6628 110.109 25.1288 111.708 25.1288C113.583 25.1288 115.083 24.3133 116.208 22.6823V24.2686C116.208 24.4863 116.388 24.6628 116.609 24.6628H118.532C118.753 24.6628 118.932 24.4863 118.932 24.2686V15.8672C118.932 14.0226 118.35 12.5761 117.185 11.5276ZM134.737 24.2439C134.737 24.4753 134.546 24.6628 134.311 24.6628H132.439C132.204 24.6628 132.013 24.4753 132.013 24.2439V23.776C132.013 23.4742 131.549 23.3295 131.33 23.5413C130.987 23.8737 130.573 24.1699 130.088 24.4298C129.24 24.8958 128.351 25.1288 127.423 25.1288C125.647 25.1288 124.275 24.6337 123.308 23.6435C122.36 22.6338 121.886 21.2067 121.886 19.3621V10.8107C121.886 10.5793 122.077 10.3918 122.312 10.3918H124.185C124.42 10.3918 124.611 10.5793 124.611 10.8107V19.1874C124.67 21.5174 125.864 22.6823 128.193 22.6823C129.279 22.6823 130.187 22.2552 130.917 21.4009C131.648 20.5271 132.013 19.4884 132.013 18.2845V10.8107C132.013 10.5793 132.204 10.3918 132.439 10.3918H134.311C134.546 10.3918 134.737 10.5793 134.737 10.8107V24.2439ZM148.81 4.20284C148.81 3.9851 148.989 3.80859 149.211 3.80859H151.133C151.354 3.80859 151.534 3.9851 151.534 4.20283V11.2785C151.534 11.5804 151.996 11.7239 152.214 11.5107C152.552 11.1794 152.957 10.884 153.429 10.6248C154.297 10.1588 155.196 9.92579 156.123 9.92579C157.9 9.92579 159.262 10.4306 160.209 11.4403C161.177 12.4305 161.66 13.8479 161.66 15.6925V24.2686C161.66 24.4863 161.481 24.6628 161.259 24.6628H159.337C159.116 24.6628 158.936 24.4863 158.936 24.2686V16.2167C158.936 13.6537 157.781 12.3723 155.472 12.3723C154.366 12.3723 153.429 12.8285 152.659 13.7411C151.909 14.6343 151.534 15.6827 151.534 16.8866V24.2686C151.534 24.4863 151.354 24.6628 151.133 24.6628H149.211C148.989 24.6628 148.81 24.4863 148.81 24.2686V4.20284Z" fill="#0F1222"/>
<path d="M24.1449 22.4006C24.3035 22.9925 25.1432 22.9925 25.3017 22.4006L29.8664 5.3634C30.0765 4.57894 29.4855 3.80859 28.6734 3.80859H25.8591C25.3001 3.80859 24.8108 4.18407 24.6662 4.72405L22.0921 14.3316C22.0564 14.4649 22.0564 14.6052 22.0921 14.7385L24.1449 22.4006Z" fill="#0364FF"/>
<path d="M8.19236 14.3192C8.22806 14.4524 8.22806 14.5928 8.19236 14.726L6.1395 22.3882C5.98094 22.98 5.14128 22.98 4.98273 22.3882L0.421424 5.3634C0.21125 4.57894 0.802296 3.80859 1.61435 3.80859H4.4287C4.98767 3.80859 5.47695 4.18407 5.62162 4.72405L8.19236 14.3192Z" fill="#0364FF"/>
<path d="M12.0402 26.1457C11.9005 26.6687 11.428 27.0324 10.8882 27.0324H8.00811C7.22388 27.0324 6.65308 26.2862 6.85606 25.5264L12.3982 4.77848C12.551 4.20639 13.0679 3.80859 13.6583 3.80859H17.008C17.5985 3.80859 18.1153 4.20639 18.2681 4.77847L23.8103 25.5264C24.0132 26.2862 23.4424 27.0324 22.6582 27.0324H19.7782C19.2383 27.0324 18.7658 26.6687 18.6261 26.1457L15.8912 15.9071C15.7382 15.3344 14.9281 15.3344 14.7751 15.9071L12.0402 26.1457Z" fill="#0364FF"/>
<path d="M14.3217 23.9867C14.1156 23.9867 13.9656 23.8007 14.0189 23.6113L15.0304 20.0198C15.1134 19.7251 15.5529 19.7251 15.6359 20.0198L16.6474 23.6113C16.7008 23.8007 16.5507 23.9867 16.3447 23.9867H14.3217Z" fill="#0364FF"/>
<path d="M120.716 39.108C120.716 38.3333 120.875 37.6473 121.192 37.05C121.519 36.4527 121.958 35.9907 122.508 35.664C123.068 35.328 123.689 35.16 124.37 35.16C124.874 35.16 125.369 35.272 125.854 35.496C126.349 35.7107 126.741 36 127.03 36.364V32.64H128.64V43H127.03V41.838C126.769 42.2113 126.405 42.5193 125.938 42.762C125.481 43.0047 124.954 43.126 124.356 43.126C123.684 43.126 123.068 42.958 122.508 42.622C121.958 42.2767 121.519 41.8007 121.192 41.194C120.875 40.578 120.716 39.8827 120.716 39.108ZM127.03 39.136C127.03 38.604 126.918 38.142 126.694 37.75C126.48 37.358 126.195 37.0593 125.84 36.854C125.486 36.6487 125.103 36.546 124.692 36.546C124.282 36.546 123.899 36.6487 123.544 36.854C123.19 37.05 122.9 37.344 122.676 37.736C122.462 38.1187 122.354 38.576 122.354 39.108C122.354 39.64 122.462 40.1067 122.676 40.508C122.9 40.9093 123.19 41.2173 123.544 41.432C123.908 41.6373 124.291 41.74 124.692 41.74C125.103 41.74 125.486 41.6373 125.84 41.432C126.195 41.2267 126.48 40.928 126.694 40.536C126.918 40.1347 127.03 39.668 127.03 39.136ZM137.807 38.954C137.807 39.2433 137.788 39.5047 137.751 39.738H131.857C131.903 40.354 132.132 40.8487 132.543 41.222C132.953 41.5953 133.457 41.782 134.055 41.782C134.913 41.782 135.52 41.4227 135.875 40.704H137.597C137.363 41.4133 136.939 41.9967 136.323 42.454C135.716 42.902 134.96 43.126 134.055 43.126C133.317 43.126 132.655 42.9627 132.067 42.636C131.488 42.3 131.031 41.8333 130.695 41.236C130.368 40.6293 130.205 39.9293 130.205 39.136C130.205 38.3427 130.363 37.6473 130.681 37.05C131.007 36.4433 131.46 35.9767 132.039 35.65C132.627 35.3233 133.299 35.16 134.055 35.16C134.783 35.16 135.431 35.3187 136.001 35.636C136.57 35.9533 137.013 36.4013 137.331 36.98C137.648 37.5493 137.807 38.2073 137.807 38.954ZM136.141 38.45C136.131 37.862 135.921 37.3907 135.511 37.036C135.1 36.6813 134.591 36.504 133.985 36.504C133.434 36.504 132.963 36.6813 132.571 37.036C132.179 37.3813 131.945 37.8527 131.871 38.45H136.141ZM148.715 35.16C149.322 35.16 149.863 35.286 150.339 35.538C150.824 35.79 151.202 36.1633 151.473 36.658C151.753 37.1527 151.893 37.75 151.893 38.45V43H150.311V38.688C150.311 37.9973 150.138 37.47 149.793 37.106C149.448 36.7327 148.976 36.546 148.379 36.546C147.782 36.546 147.306 36.7327 146.951 37.106C146.606 37.47 146.433 37.9973 146.433 38.688V43H144.851V38.688C144.851 37.9973 144.678 37.47 144.333 37.106C143.988 36.7327 143.516 36.546 142.919 36.546C142.322 36.546 141.846 36.7327 141.491 37.106C141.146 37.47 140.973 37.9973 140.973 38.688V43H139.377V35.286H140.973V36.168C141.234 35.8507 141.566 35.6033 141.967 35.426C142.368 35.2487 142.798 35.16 143.255 35.16C143.871 35.16 144.422 35.2907 144.907 35.552C145.392 35.8133 145.766 36.1913 146.027 36.686C146.26 36.2193 146.624 35.8507 147.119 35.58C147.614 35.3 148.146 35.16 148.715 35.16ZM157.27 43.126C156.542 43.126 155.884 42.9627 155.296 42.636C154.708 42.3 154.246 41.8333 153.91 41.236C153.574 40.6293 153.406 39.9293 153.406 39.136C153.406 38.352 153.579 37.6567 153.924 37.05C154.269 36.4433 154.741 35.9767 155.338 35.65C155.935 35.3233 156.603 35.16 157.34 35.16C158.077 35.16 158.745 35.3233 159.342 35.65C159.939 35.9767 160.411 36.4433 160.756 37.05C161.101 37.6567 161.274 38.352 161.274 39.136C161.274 39.92 161.097 40.6153 160.742 41.222C160.387 41.8287 159.902 42.3 159.286 42.636C158.679 42.9627 158.007 43.126 157.27 43.126ZM157.27 41.74C157.681 41.74 158.063 41.642 158.418 41.446C158.782 41.25 159.076 40.956 159.3 40.564C159.524 40.172 159.636 39.696 159.636 39.136C159.636 38.576 159.529 38.1047 159.314 37.722C159.099 37.33 158.815 37.036 158.46 36.84C158.105 36.644 157.723 36.546 157.312 36.546C156.901 36.546 156.519 36.644 156.164 36.84C155.819 37.036 155.543 37.33 155.338 37.722C155.133 38.1047 155.03 38.576 155.03 39.136C155.03 39.9667 155.24 40.6107 155.66 41.068C156.089 41.516 156.626 41.74 157.27 41.74Z" fill="black"/>
</svg>
