<svg width="47" height="47" viewBox="0 0 47 47" fill="none" xmlns="http://www.w3.org/2000/svg">
<circle cx="23.5" cy="23.5" r="23" stroke="#F3F4F6"/>
<path d="M13.4004 24.2016C13.4004 23.8833 13.5268 23.5781 13.7519 23.353C13.9769 23.128 14.2821 23.0016 14.6004 23.0016H17.0004C17.3187 23.0016 17.6239 23.128 17.8489 23.353C18.074 23.5781 18.2004 23.8833 18.2004 24.2016V30.2016C18.2004 30.5198 18.074 30.825 17.8489 31.0501C17.6239 31.2751 17.3187 31.4016 17.0004 31.4016H14.6004C14.2821 31.4016 13.9769 31.2751 13.7519 31.0501C13.5268 30.825 13.4004 30.5198 13.4004 30.2016V24.2016ZM20.6004 19.4016C20.6004 19.0833 20.7268 18.7781 20.9519 18.553C21.1769 18.328 21.4821 18.2016 21.8004 18.2016H24.2004C24.5187 18.2016 24.8239 18.328 25.0489 18.553C25.274 18.7781 25.4004 19.0833 25.4004 19.4016V30.2016C25.4004 30.5198 25.274 30.825 25.0489 31.0501C24.8239 31.2751 24.5187 31.4016 24.2004 31.4016H21.8004C21.4821 31.4016 21.1769 31.2751 20.9519 31.0501C20.7268 30.825 20.6004 30.5198 20.6004 30.2016V19.4016ZM27.8004 15.8016C27.8004 15.4833 27.9268 15.1781 28.1519 14.953C28.3769 14.728 28.6821 14.6016 29.0004 14.6016H31.4004C31.7187 14.6016 32.0239 14.728 32.2489 14.953C32.474 15.1781 32.6004 15.4833 32.6004 15.8016V30.2016C32.6004 30.5198 32.474 30.825 32.2489 31.0501C32.0239 31.2751 31.7187 31.4016 31.4004 31.4016H29.0004C28.6821 31.4016 28.3769 31.2751 28.1519 31.0501C27.9268 30.825 27.8004 30.5198 27.8004 30.2016V15.8016Z" fill="#111928"/>
</svg>
