<svg width="80" height="80" viewBox="0 0 80 80" fill="none" xmlns="http://www.w3.org/2000/svg">
<g opacity="0.25">
<rect width="7.00017" height="7.00017" rx="1" transform="matrix(1 1.74846e-07 1.74846e-07 -1 3 16.8438)" fill="#96A7E2"/>
<rect width="7.00017" height="7.00017" rx="1" transform="matrix(1 1.74846e-07 1.74846e-07 -1 10 9.84375)" fill="#96A7E2"/>
</g>
<circle cx="38.7544" cy="29.9946" r="10.5493" fill="white"/>
<g clip-path="url(#clip0_2345_28639)">
<path d="M49.579 30.045C49.6155 35.926 44.8777 40.723 38.9967 40.7595C33.1158 40.796 28.3188 36.0582 28.2823 30.1773C28.2457 24.2964 32.9836 19.4993 38.8645 19.4628C44.7454 19.4263 49.5425 24.1641 49.579 30.045Z" fill="#F3F6FC"/>
<path d="M38.9967 40.7595C44.8777 40.723 49.6155 35.926 49.579 30.045C49.5425 24.1641 44.7454 19.4263 38.8645 19.4628C32.9836 19.4993 28.2457 24.2964 28.2823 30.1773C28.3188 36.0582 33.1158 40.796 38.9967 40.7595ZM38.9967 40.7595L39.1572 66.6201L49.045 66.5587M39.0912 55.9715L48.2184 55.9148" stroke="#0364FF" stroke-width="3"/>
</g>
<path d="M51.6179 46.5912C54.8579 43.9571 57.1996 40.3816 58.3192 36.3589C59.4389 32.3362 59.2812 28.065 57.868 24.1358C56.4548 20.2066 53.8558 16.8135 50.4305 14.4255C47.0051 12.0375 42.9224 10.7726 38.747 10.8056C34.5715 10.8387 30.5094 12.168 27.1222 14.61C23.7351 17.0519 21.1902 20.4857 19.8393 24.4368C18.4885 28.3879 18.3984 32.661 19.5816 36.6655C20.7648 40.67 23.1628 44.208 26.4441 46.7905" stroke="url(#paint0_linear_2345_28639)" stroke-width="3"/>
<g clip-path="url(#clip1_2345_28639)">
<rect opacity="0.25" x="17" y="49.6992" width="46" height="20" fill="url(#paint1_linear_2345_28639)"/>
<g opacity="0.25">
<path d="M49.5785 26.6339C49.615 32.4525 44.8772 37.1986 38.9962 37.2348C33.1153 37.2709 28.3183 32.5833 28.2817 26.7648C28.2452 20.9462 32.9831 16.2001 38.864 16.164C44.7449 16.1278 49.5419 20.8154 49.5785 26.6339Z" fill="#F3F6FC" fill-opacity="0.1"/>
<path d="M38.9962 37.2348C44.8772 37.1986 49.615 32.4525 49.5785 26.6339C49.5419 20.8154 44.7449 16.1278 38.864 16.164C32.9831 16.2001 28.2452 20.9462 28.2817 26.7648C28.3183 32.5833 33.1153 37.2709 38.9962 37.2348ZM38.9962 37.2348L39.1567 67.2916L49.0445 67.2309M39.0907 56.756L48.2179 56.6999" stroke="#1AC7FE" stroke-width="3"/>
</g>
<line x1="17" y1="51.0898" x2="63" y2="51.0898" stroke="#1AC7FE" stroke-width="3"/>
</g>
<g opacity="0.25">
<rect width="7.00017" height="7.00017" rx="1" transform="matrix(-1 0 0 1 80 72.8438)" fill="#96A7E2"/>
<rect width="7.00017" height="7.00017" rx="1" transform="matrix(-1 0 0 1 73 65.8438)" fill="#96A7E2"/>
</g>
<defs>
<linearGradient id="paint0_linear_2345_28639" x1="32.1878" y1="-0.658331" x2="49.5436" y2="65.8111" gradientUnits="userSpaceOnUse">
<stop stop-color="#66D4F7"/>
<stop offset="0.322917" stop-color="#4D92FF"/>
<stop offset="1" stop-color="#BB65FF"/>
</linearGradient>
<linearGradient id="paint1_linear_2345_28639" x1="40" y1="49.6992" x2="40" y2="69.6992" gradientUnits="userSpaceOnUse">
<stop stop-color="#1AC7FE"/>
<stop offset="0.760417" stop-color="#1AC7FE" stop-opacity="0"/>
</linearGradient>
<clipPath id="clip0_2345_28639">
<rect width="56.4815" height="37.2778" fill="white" transform="translate(13.2598 15.0508)"/>
</clipPath>
<clipPath id="clip1_2345_28639">
<rect width="61" height="21" fill="white" transform="translate(11 50.1445)"/>
</clipPath>
</defs>
</svg>
