<svg width="48" height="48" viewBox="0 0 48 48" fill="none" xmlns="http://www.w3.org/2000/svg">
<rect width="48" height="48" rx="8" fill="#E1EFFE"/>
<path fill-rule="evenodd" clip-rule="evenodd" d="M31.4635 18.3513L24.7807 13.546C24.3153 13.2114 23.6851 13.2114 23.2197 13.546L16.5368 18.3513C16.0714 18.686 15.8767 19.2791 16.0545 19.8206L18.6071 27.5957C18.7848 28.1372 19.2947 28.5038 19.8699 28.5038H28.1304C28.7056 28.5038 29.2155 28.1372 29.3932 27.5957L31.9459 19.8206C32.1236 19.2791 31.9289 18.686 31.4635 18.3513ZM26.3416 11.4197C24.9455 10.4158 23.0549 10.4158 21.6587 11.4197L14.9759 16.225C13.5797 17.2289 12.9954 19.0084 13.5287 20.6328L16.0814 28.4079C16.6146 30.0323 18.1442 31.1321 19.8699 31.1321H20.5839C20.5688 32.049 20.4536 32.7592 20.1652 33.3171C19.8848 33.8596 19.371 34.3906 18.25 34.7789C17.6388 34.9906 17.2711 35.6077 17.3796 36.2394C17.488 36.8712 18.0411 37.3334 18.6886 37.3334H29.3115C29.959 37.3334 30.5121 36.8712 30.6206 36.2394C30.7291 35.6077 30.3613 34.9906 29.7501 34.7789C28.6292 34.3906 28.1154 33.8596 27.8349 33.3171C27.5465 32.7592 27.4313 32.049 27.4163 31.1321H28.1304C29.8562 31.1321 31.3857 30.0323 31.919 28.4079L34.4716 20.6328C35.0049 19.0084 34.4207 17.2289 33.0245 16.225L26.3416 11.4197ZM22.5295 34.5142C23.0958 33.4188 23.2258 32.2162 23.2399 31.1321H24.7602C24.7743 32.2162 24.9044 33.4188 25.4707 34.5142C25.504 34.5786 25.5386 34.6423 25.5744 34.7051H22.4257C22.4616 34.6423 22.4962 34.5786 22.5295 34.5142ZM26.3416 22.0001C26.3416 23.4728 25.2948 24.6667 24.0002 24.6667C22.5274 24.6667 21.3335 23.4728 21.3335 22.0001C21.3335 20.5273 22.5274 19.3334 24.0002 19.3334C25.2352 19.3334 26.3416 20.5273 26.3416 22.0001ZM29.3335 22.0001C29.3335 24.9456 26.9457 27.3334 24.0002 27.3334C21.0546 27.3334 18.6668 24.9456 18.6668 22.0001C18.6668 19.0546 21.0546 16.6667 24.0002 16.6667C26.9457 16.6667 29.3335 19.0546 29.3335 22.0001Z" fill="#0346FF"/>
</svg>
