<svg width="61" height="61" viewBox="0 0 61 61" fill="none" xmlns="http://www.w3.org/2000/svg">
<g filter="url(#filter0_b_2344_52507)">
<rect x="0.666992" y="1" width="59" height="59" rx="29.5" fill="url(#paint0_linear_2344_52507)" fill-opacity="0.2"/>
<g clip-path="url(#clip0_2344_52507)">
<g filter="url(#filter1_b_2344_52507)">
<rect x="9.08918" y="22.7513" width="41.4867" height="15.499" rx="2.82815" stroke="#0364FF" stroke-width="1.68226"/>
</g>
<path d="M17.9841 34.54L18.3641 31.72L16.1241 33.48L15.1641 31.78L17.7841 30.74L15.1841 29.74L16.0841 28.12L18.3841 29.86L17.9841 27H19.8441L19.4441 29.86L21.7241 28.12L22.6041 29.72L20.0041 30.76L22.6241 31.8L21.6841 33.46L19.4441 31.72L19.8241 34.54H17.9841Z" fill="#1AC7FE"/>
<path d="M28.444 34.54L28.824 31.72L26.584 33.48L25.624 31.78L28.244 30.74L25.644 29.74L26.544 28.12L28.844 29.86L28.444 27H30.304L29.904 29.86L32.184 28.12L33.064 29.72L30.464 30.76L33.084 31.8L32.144 33.46L29.904 31.72L30.284 34.54H28.444Z" fill="#1AC7FE"/>
<path d="M38.904 34.54L39.284 31.72L37.044 33.48L36.084 31.78L38.704 30.74L36.104 29.74L37.004 28.12L39.304 29.86L38.904 27H40.764L40.364 29.86L42.644 28.12L43.524 29.72L40.924 30.76L43.544 31.8L42.604 33.46L40.364 31.72L40.744 34.54H38.904Z" fill="#1AC7FE"/>
</g>
<rect x="0.666992" y="1" width="59" height="59" rx="29.5" stroke="url(#paint1_linear_2344_52507)" stroke-opacity="0.25"/>
</g>
<defs>
<filter id="filter0_b_2344_52507" x="-17.6849" y="-17.3519" width="95.7037" height="95.7037" filterUnits="userSpaceOnUse" color-interpolation-filters="sRGB">
<feFlood flood-opacity="0" result="BackgroundImageFix"/>
<feGaussianBlur in="BackgroundImageFix" stdDeviation="8.92593"/>
<feComposite in2="SourceAlpha" operator="in" result="effect1_backgroundBlur_2344_52507"/>
<feBlend mode="normal" in="SourceGraphic" in2="effect1_backgroundBlur_2344_52507" result="shape"/>
</filter>
<filter id="filter1_b_2344_52507" x="-42.2355" y="-28.5734" width="144.136" height="118.147" filterUnits="userSpaceOnUse" color-interpolation-filters="sRGB">
<feFlood flood-opacity="0" result="BackgroundImageFix"/>
<feGaussianBlur in="BackgroundImageFix" stdDeviation="25.2418"/>
<feComposite in2="SourceAlpha" operator="in" result="effect1_backgroundBlur_2344_52507"/>
<feBlend mode="normal" in="SourceGraphic" in2="effect1_backgroundBlur_2344_52507" result="shape"/>
</filter>
<linearGradient id="paint0_linear_2344_52507" x1="15.6341" y1="-14.5284" x2="50.893" y2="79.66" gradientUnits="userSpaceOnUse">
<stop stop-color="#66D4F7"/>
<stop offset="0.322917" stop-color="#4D92FF"/>
<stop offset="1" stop-color="#BB65FF"/>
</linearGradient>
<linearGradient id="paint1_linear_2344_52507" x1="30.167" y1="1" x2="30.167" y2="60" gradientUnits="userSpaceOnUse">
<stop stop-color="white"/>
<stop offset="1" stop-color="white" stop-opacity="0.3"/>
</linearGradient>
<clipPath id="clip0_2344_52507">
<rect width="43.1689" height="17.1813" fill="white" transform="translate(8.24609 21.9102)"/>
</clipPath>
</defs>
</svg>
