<svg width="61" height="61" viewBox="0 0 61 61" fill="none" xmlns="http://www.w3.org/2000/svg">
<g filter="url(#filter0_b_2344_52489)">
<rect x="1" y="1" width="59" height="59" rx="29.5" fill="url(#paint0_linear_2344_52489)" fill-opacity="0.2"/>
<path d="M34.6427 22.6055H16.4251C15.3071 22.6055 14.4009 23.5117 14.4009 24.6296V40.4183C14.4009 41.5362 15.3071 42.4424 16.4251 42.4424H39.2983C40.4162 42.4424 41.3225 41.5362 41.3225 40.4183V35.5602" stroke="#0364FF" stroke-width="1.65334"/>
<path d="M30.7608 28.0871C30.7189 28.0871 30.677 28.0766 30.6403 28.0557C29.6343 27.537 28.7646 27.3169 27.7219 27.3169C26.6845 27.3169 25.6995 27.5632 24.8035 28.0557C24.6778 28.1238 24.5206 28.0766 24.4473 27.9509C24.3791 27.8251 24.4263 27.6627 24.5521 27.5946C25.5266 27.0654 26.5954 26.793 27.7219 26.793C28.8379 26.793 29.8125 27.0392 30.8813 27.5894C31.0123 27.6575 31.0595 27.8147 30.9914 27.9404C30.9442 28.0347 30.8551 28.0871 30.7608 28.0871ZM23.2631 30.8378C23.2107 30.8378 23.1584 30.8221 23.1112 30.7907C22.9907 30.7069 22.9645 30.5444 23.0483 30.4239C23.567 29.6904 24.2272 29.1141 25.0131 28.7106C26.6583 27.8618 28.7646 27.8566 30.415 28.7054C31.2009 29.1088 31.8611 29.6799 32.3798 30.4082C32.4637 30.5235 32.4375 30.6911 32.3169 30.775C32.1964 30.8588 32.034 30.8326 31.9502 30.7121C31.4786 30.0519 30.8813 29.5332 30.174 29.1717C28.6703 28.4015 26.7474 28.4015 25.2489 29.1769C24.5363 29.5437 23.939 30.0676 23.4675 30.7278C23.4256 30.8012 23.347 30.8378 23.2631 30.8378ZM26.5378 37.1619C26.4697 37.1619 26.4016 37.1357 26.3544 37.0833C25.8986 36.6275 25.6523 36.334 25.3013 35.7001C24.9398 35.0556 24.7512 34.2697 24.7512 33.4261C24.7512 31.87 26.082 30.6021 27.7167 30.6021C29.3514 30.6021 30.6822 31.87 30.6822 33.4261C30.6822 33.5728 30.567 33.6881 30.4203 33.6881C30.2736 33.6881 30.1583 33.5728 30.1583 33.4261C30.1583 32.1582 29.0632 31.126 27.7167 31.126C26.3701 31.126 25.2751 32.1582 25.2751 33.4261C25.2751 34.1806 25.4428 34.8775 25.7624 35.4433C26.0977 36.0459 26.3282 36.3026 26.7317 36.7113C26.8312 36.8161 26.8312 36.9785 26.7317 37.0833C26.674 37.1357 26.6059 37.1619 26.5378 37.1619ZM30.2945 36.1926C29.671 36.1926 29.1209 36.0354 28.6703 35.7263C27.8896 35.1971 27.4233 34.3378 27.4233 33.4261C27.4233 33.2794 27.5385 33.1642 27.6853 33.1642C27.832 33.1642 27.9472 33.2794 27.9472 33.4261C27.9472 34.1649 28.3245 34.8618 28.9637 35.2914C29.3357 35.5429 29.7706 35.6634 30.2945 35.6634C30.4203 35.6634 30.6298 35.6477 30.8394 35.611C30.9809 35.5848 31.1171 35.6791 31.1433 35.8258C31.1695 35.9673 31.0752 36.1035 30.9285 36.1297C30.6298 36.1873 30.3679 36.1926 30.2945 36.1926ZM29.2414 37.2719C29.2204 37.2719 29.1942 37.2667 29.1733 37.2614C28.3402 37.0309 27.7953 36.7218 27.2242 36.1611C26.4907 35.4329 26.0872 34.4636 26.0872 33.4261C26.0872 32.5773 26.8103 31.8857 27.701 31.8857C28.5917 31.8857 29.3147 32.5773 29.3147 33.4261C29.3147 33.9868 29.802 34.4426 30.4045 34.4426C31.0071 34.4426 31.4943 33.9868 31.4943 33.4261C31.4943 31.4509 29.7915 29.8476 27.6957 29.8476C26.2077 29.8476 24.8455 30.6754 24.2324 31.9591C24.0281 32.3835 23.9233 32.8812 23.9233 33.4261C23.9233 33.8348 23.96 34.4793 24.2744 35.3176C24.3268 35.4538 24.2586 35.6058 24.1224 35.6529C23.9862 35.7053 23.8342 35.632 23.7871 35.501C23.5304 34.8146 23.4046 34.1335 23.4046 33.4261C23.4046 32.7974 23.5251 32.2263 23.7609 31.7285C24.4577 30.2667 26.0034 29.3184 27.6957 29.3184C30.0797 29.3184 32.0183 31.1574 32.0183 33.4209C32.0183 34.2697 31.2952 34.9613 30.4045 34.9613C29.5138 34.9613 28.7908 34.2697 28.7908 33.4209C28.7908 32.8603 28.3035 32.4044 27.701 32.4044C27.0984 32.4044 26.6112 32.8603 26.6112 33.4209C26.6112 34.3168 26.957 35.1552 27.5909 35.7839C28.0887 36.2764 28.5655 36.5489 29.3042 36.7532C29.4457 36.7899 29.5243 36.9366 29.4876 37.0728C29.4614 37.1933 29.3514 37.2719 29.2414 37.2719Z" fill="#0364FF"/>
<path d="M12.5283 45.7852H43.1947" stroke="#0364FF" stroke-width="1.65334" stroke-linecap="round"/>
<path d="M34.6421 17.4565C34.6421 16.2206 35.639 15.2188 36.8687 15.2188H45.5727C46.8024 15.2188 47.7993 16.2206 47.7993 17.4565V33.324C47.7993 34.5599 46.8024 35.5618 45.5727 35.5618H36.8687C35.639 35.5618 34.6421 34.5599 34.6421 33.324V17.4565Z" stroke="#1AC7FE" stroke-width="1.65334"/>
<path d="M38.3872 32.3047H44.1561" stroke="#1AC7FE" stroke-width="1.65334" stroke-linecap="round"/>
<rect x="1" y="1" width="59" height="59" rx="29.5" stroke="url(#paint1_linear_2344_52489)" stroke-opacity="0.25"/>
</g>
<defs>
<filter id="filter0_b_2344_52489" x="-17.3519" y="-17.3519" width="95.7037" height="95.7037" filterUnits="userSpaceOnUse" color-interpolation-filters="sRGB">
<feFlood flood-opacity="0" result="BackgroundImageFix"/>
<feGaussianBlur in="BackgroundImageFix" stdDeviation="8.92593"/>
<feComposite in2="SourceAlpha" operator="in" result="effect1_backgroundBlur_2344_52489"/>
<feBlend mode="normal" in="SourceGraphic" in2="effect1_backgroundBlur_2344_52489" result="shape"/>
</filter>
<linearGradient id="paint0_linear_2344_52489" x1="15.9671" y1="-14.5284" x2="51.226" y2="79.66" gradientUnits="userSpaceOnUse">
<stop stop-color="#66D4F7"/>
<stop offset="0.322917" stop-color="#4D92FF"/>
<stop offset="1" stop-color="#BB65FF"/>
</linearGradient>
<linearGradient id="paint1_linear_2344_52489" x1="30.5" y1="1" x2="30.5" y2="60" gradientUnits="userSpaceOnUse">
<stop stop-color="white"/>
<stop offset="1" stop-color="white" stop-opacity="0.3"/>
</linearGradient>
</defs>
</svg>
