<svg width="76" height="76" viewBox="0 0 76 76" fill="none" xmlns="http://www.w3.org/2000/svg">
<circle opacity="0.2" cx="40" cy="40" r="18" fill="#1AC7FE"/>
<path d="M61.2132 61.2132C65.609 56.8174 68.5306 51.1646 69.5742 45.0363C70.6179 38.9079 69.7319 32.6067 67.0388 27.0037C64.3457 21.4008 59.9786 16.7728 54.541 13.7596C49.1035 10.7464 42.8642 9.49685 36.6857 10.1836C30.5072 10.8704 24.6946 13.4596 20.0515 17.5934C15.4084 21.7271 12.1642 27.2011 10.7672 33.2587C9.3703 39.3163 9.8897 45.6583 12.2536 51.4078C14.6176 57.1574 18.7092 62.0307 23.963 65.3538" stroke="url(#paint0_linear_516_52)" stroke-width="3"/>
<path d="M33.883 53.816V53.3004L33.7545 38.5333C33.7383 36.6697 35.2445 35.1504 37.1081 35.1504C38.9602 35.1504 40.4616 36.6518 40.4618 38.5039L40.4623 48.3504L50.2505 50.0004C51.4281 50.4967 52.2504 51.4828 52.2504 52.4754V59.9004C52.2504 63.5291 49.2177 66.5004 45.5139 66.5004H37.6196C36.271 66.5004 34.9224 65.8494 34.2514 64.6957L31.041 59.9004C29.8634 58.2504 30.3437 55.7883 32.1988 54.7957L33.883 53.816Z" fill="#F3F6FC" stroke="#0364FF" stroke-width="3"/>
<g opacity="0.25">
<rect x="2.84961" y="9.5" width="6.65016" height="6.65016" rx="1" fill="#96A7E2"/>
<rect x="9.5" y="2.84961" width="6.65016" height="6.65016" rx="1" fill="#96A7E2"/>
</g>
<g opacity="0.25">
<rect width="6.65016" height="6.65016" rx="1" transform="matrix(-1 0 0 1 76 69.3496)" fill="#96A7E2"/>
<rect width="6.65016" height="6.65016" rx="1" transform="matrix(-1 0 0 1 69.3496 62.6992)" fill="#96A7E2"/>
</g>
<defs>
<linearGradient id="paint0_linear_516_52" x1="25.2208" y1="-5.79162" x2="61.0773" y2="89.9932" gradientUnits="userSpaceOnUse">
<stop stop-color="#66D4F7"/>
<stop offset="0.322917" stop-color="#4D92FF"/>
<stop offset="1" stop-color="#BB65FF"/>
</linearGradient>
</defs>
</svg>
