<svg width="48" height="48" viewBox="0 0 48 48" fill="none" xmlns="http://www.w3.org/2000/svg">
<rect width="48" height="48" rx="8" fill="#E1EFFE"/>
<path d="M14.4002 14.3984C13.5515 14.3984 12.7376 14.7356 12.1375 15.3357C11.5373 15.9358 11.2002 16.7497 11.2002 17.5984V19.1984H36.8002V17.5984C36.8002 16.7497 36.4631 15.9358 35.8629 15.3357C35.2628 14.7356 34.4489 14.3984 33.6002 14.3984H14.4002Z" fill="#0346FF"/>
<path fill-rule="evenodd" clip-rule="evenodd" d="M36.8002 22.3984H11.2002V30.3984C11.2002 31.2471 11.5373 32.0611 12.1375 32.6612C12.7376 33.2613 13.5515 33.5984 14.4002 33.5984H33.6002C34.4489 33.5984 35.2628 33.2613 35.8629 32.6612C36.4631 32.0611 36.8002 31.2471 36.8002 30.3984V22.3984ZM14.4002 28.7984C14.4002 28.3741 14.5688 27.9671 14.8688 27.6671C15.1689 27.367 15.5758 27.1984 16.0002 27.1984H17.6002C18.0245 27.1984 18.4315 27.367 18.7316 27.6671C19.0316 27.9671 19.2002 28.3741 19.2002 28.7984C19.2002 29.2228 19.0316 29.6298 18.7316 29.9298C18.4315 30.2299 18.0245 30.3984 17.6002 30.3984H16.0002C15.5758 30.3984 15.1689 30.2299 14.8688 29.9298C14.5688 29.6298 14.4002 29.2228 14.4002 28.7984ZM22.4002 27.1984C21.9758 27.1984 21.5689 27.367 21.2688 27.6671C20.9688 27.9671 20.8002 28.3741 20.8002 28.7984C20.8002 29.2228 20.9688 29.6298 21.2688 29.9298C21.5689 30.2299 21.9758 30.3984 22.4002 30.3984H24.0002C24.4245 30.3984 24.8315 30.2299 25.1316 29.9298C25.4316 29.6298 25.6002 29.2228 25.6002 28.7984C25.6002 28.3741 25.4316 27.9671 25.1316 27.6671C24.8315 27.367 24.4245 27.1984 24.0002 27.1984H22.4002Z" fill="#0346FF"/>
</svg>
