<svg width="48" height="48" viewBox="0 0 48 48" fill="none" xmlns="http://www.w3.org/2000/svg">
<rect width="48" height="48" rx="8" fill="#E1EFFE"/>
<path fill-rule="evenodd" clip-rule="evenodd" d="M16.0002 11.1992C16.4245 11.1992 16.8315 11.3678 17.1316 11.6678C17.4316 11.9679 17.6002 12.3749 17.6002 12.7992V14.3992H19.2002C19.6245 14.3992 20.0315 14.5678 20.3316 14.8678C20.6316 15.1679 20.8002 15.5749 20.8002 15.9992C20.8002 16.4236 20.6316 16.8305 20.3316 17.1306C20.0315 17.4306 19.6245 17.5992 19.2002 17.5992H17.6002V19.1992C17.6002 19.6236 17.4316 20.0305 17.1316 20.3306C16.8315 20.6306 16.4245 20.7992 16.0002 20.7992C15.5758 20.7992 15.1689 20.6306 14.8688 20.3306C14.5688 20.0305 14.4002 19.6236 14.4002 19.1992V17.5992H12.8002C12.3758 17.5992 11.9689 17.4306 11.6688 17.1306C11.3688 16.8305 11.2002 16.4236 11.2002 15.9992C11.2002 15.5749 11.3688 15.1679 11.6688 14.8678C11.9689 14.5678 12.3758 14.3992 12.8002 14.3992H14.4002V12.7992C14.4002 12.3749 14.5688 11.9679 14.8688 11.6678C15.1689 11.3678 15.5758 11.1992 16.0002 11.1992ZM16.0002 27.1992C16.4245 27.1992 16.8315 27.3678 17.1316 27.6678C17.4316 27.9679 17.6002 28.3749 17.6002 28.7992V30.3992H19.2002C19.6245 30.3992 20.0315 30.5678 20.3316 30.8678C20.6316 31.1679 20.8002 31.5749 20.8002 31.9992C20.8002 32.4236 20.6316 32.8305 20.3316 33.1306C20.0315 33.4306 19.6245 33.5992 19.2002 33.5992H17.6002V35.1992C17.6002 35.6236 17.4316 36.0305 17.1316 36.3306C16.8315 36.6306 16.4245 36.7992 16.0002 36.7992C15.5758 36.7992 15.1689 36.6306 14.8688 36.3306C14.5688 36.0305 14.4002 35.6236 14.4002 35.1992V33.5992H12.8002C12.3758 33.5992 11.9689 33.4306 11.6688 33.1306C11.3688 32.8305 11.2002 32.4236 11.2002 31.9992C11.2002 31.5749 11.3688 31.1679 11.6688 30.8678C11.9689 30.5678 12.3758 30.3992 12.8002 30.3992H14.4002V28.7992C14.4002 28.3749 14.5688 27.9679 14.8688 27.6678C15.1689 27.3678 15.5758 27.1992 16.0002 27.1992ZM27.2002 11.1992C27.5533 11.1991 27.8965 11.3158 28.1764 11.5311C28.4562 11.7464 28.657 12.0483 28.7474 12.3896L30.6338 19.5192L36.0002 22.6136C36.2434 22.7541 36.4454 22.956 36.5858 23.1993C36.7262 23.4425 36.8001 23.7184 36.8001 23.9992C36.8001 24.2801 36.7262 24.556 36.5858 24.7992C36.4454 25.0424 36.2434 25.2444 36.0002 25.3848L30.6338 28.4808L28.7458 35.6088C28.6552 35.9498 28.4545 36.2513 28.1748 36.4664C27.8952 36.6815 27.5522 36.7982 27.1994 36.7982C26.8466 36.7982 26.5036 36.6815 26.224 36.4664C25.9443 36.2513 25.7436 35.9498 25.653 35.6088L23.7666 28.4792L18.4002 25.3848C18.157 25.2444 17.955 25.0424 17.8146 24.7992C17.6742 24.556 17.6003 24.2801 17.6003 23.9992C17.6003 23.7184 17.6742 23.4425 17.8146 23.1993C17.955 22.956 18.157 22.7541 18.4002 22.6136L23.7666 19.5176L25.6546 12.3896C25.7449 12.0485 25.9454 11.7469 26.225 11.5316C26.5045 11.3163 26.8474 11.1995 27.2002 11.1992Z" fill="#0346FF"/>
</svg>
