<svg width="48" height="48" viewBox="0 0 48 48" fill="none" xmlns="http://www.w3.org/2000/svg">
<rect width="48" height="48" rx="8" fill="#E1EFFE"/>
<path fill-rule="evenodd" clip-rule="evenodd" d="M24.0002 36.7992C27.395 36.7992 30.6507 35.4507 33.0512 33.0502C35.4516 30.6497 36.8002 27.394 36.8002 23.9992C36.8002 20.6044 35.4516 17.3487 33.0512 14.9483C30.6507 12.5478 27.395 11.1992 24.0002 11.1992C20.6054 11.1992 17.3497 12.5478 14.9492 14.9483C12.5488 17.3487 11.2002 20.6044 11.2002 23.9992C11.2002 27.394 12.5488 30.6497 14.9492 33.0502C17.3497 35.4507 20.6054 36.7992 24.0002 36.7992ZM14.9314 20.8424C15.5255 19.1412 16.5855 17.641 17.9906 16.5128C18.4194 17.1672 19.1586 17.5992 20.0002 17.5992C20.6367 17.5992 21.2472 17.8521 21.6973 18.3022C22.1473 18.7522 22.4002 19.3627 22.4002 19.9992V20.7992C22.4002 21.6479 22.7373 22.4618 23.3375 23.062C23.9376 23.6621 24.7515 23.9992 25.6002 23.9992C26.4489 23.9992 27.2628 23.6621 27.8629 23.062C28.4631 22.4618 28.8002 21.6479 28.8002 20.7992C28.7999 20.0831 29.0399 19.3876 29.4817 18.824C29.9235 18.2604 30.5415 17.8612 31.237 17.6904C32.7639 19.4371 33.6038 21.6793 33.6002 23.9992C33.6002 24.5432 33.5554 25.0792 33.4674 25.5992H32.0002C31.1515 25.5992 30.3376 25.9364 29.7375 26.5365C29.1373 27.1366 28.8002 27.9505 28.8002 28.7992V32.3144C27.3415 33.1584 25.6855 33.6017 24.0002 33.5992V30.3992C24.0002 29.5505 23.6631 28.7366 23.0629 28.1365C22.4628 27.5364 21.6489 27.1992 20.8002 27.1992C19.9515 27.1992 19.1376 26.8621 18.5375 26.262C17.9373 25.6618 17.6002 24.8479 17.6002 23.9992C17.6005 23.2424 17.3325 22.51 16.8439 21.9321C16.3553 21.3541 15.6777 20.968 14.9314 20.8424Z" fill="#0346FF"/>
</svg>
