<svg width="80" height="80" viewBox="0 0 80 80" fill="none" xmlns="http://www.w3.org/2000/svg">
<path d="M41.8713 11.0408L22.2507 18.0384C20.8994 18.5205 20 19.7973 20 21.2281V35.4756C20 35.4756 20.5034 58.9952 40.5155 69.245C42.1107 70.0619 44.0124 70.0396 45.5918 69.1981C51.2856 66.1625 64.5033 56.8836 66 35.5872V21.0272C66 19.5852 65.085 18.3018 63.7202 17.8286L44.1287 11.0318C43.3971 10.7774 42.6006 10.7818 41.8713 11.0408Z" stroke="url(#paint0_linear_2345_28667)" stroke-width="3"/>
<g opacity="0.25">
<path d="M29 46.0234H58" stroke="#1AC7FE" stroke-width="3" stroke-linecap="round"/>
<path d="M29 37.6094H58" stroke="#1AC7FE" stroke-width="3" stroke-linecap="round"/>
<path d="M29 29.1953H58" stroke="#1AC7FE" stroke-width="3" stroke-linecap="round"/>
</g>
<path d="M50.4689 42.6445C52.3262 42.6445 53.8342 44.1525 53.8342 46.0099C53.8342 47.8672 52.3262 49.3752 50.4689 49.3752C48.6115 49.3752 47.1035 47.8672 47.1035 46.0099C47.1035 44.1525 48.6115 42.6445 50.4689 42.6445Z" fill="white" stroke="#0364FF" stroke-width="1.86"/>
<path d="M35.9961 33.8438C38.2015 33.8438 39.9922 35.6344 39.9922 37.8398C39.9922 40.0453 38.2015 41.8359 35.9961 41.8359C33.7906 41.8359 32 40.0453 32 37.8398C32 35.6344 33.7906 33.8438 35.9961 33.8438Z" fill="#1AC7FE"/>
<path d="M50.7052 25.8438C52.5625 25.8438 54.0705 27.3518 54.0705 29.2091C54.0705 31.0664 52.5625 32.5744 50.7052 32.5744C48.8479 32.5744 47.3398 31.0664 47.3398 29.2091C47.3398 27.3518 48.8479 25.8438 50.7052 25.8438Z" fill="white" stroke="#0364FF" stroke-width="1.86"/>
<g opacity="0.25">
<rect width="7.00017" height="7.00017" rx="1" transform="matrix(1 1.74846e-07 1.74846e-07 -1 3 16.8438)" fill="#96A7E2"/>
<rect width="7.00017" height="7.00017" rx="1" transform="matrix(1 1.74846e-07 1.74846e-07 -1 10 9.84375)" fill="#96A7E2"/>
</g>
<g opacity="0.25">
<rect width="7.00017" height="7.00017" rx="1" transform="matrix(-1 0 0 1 80 72.8438)" fill="#96A7E2"/>
<rect width="7.00017" height="7.00017" rx="1" transform="matrix(-1 0 0 1 73 65.8438)" fill="#96A7E2"/>
</g>
<defs>
<linearGradient id="paint0_linear_2345_28667" x1="31.6693" y1="-4.68468" x2="73.5704" y2="82.5845" gradientUnits="userSpaceOnUse">
<stop stop-color="#66D4F7"/>
<stop offset="0.322917" stop-color="#4D92FF"/>
<stop offset="1" stop-color="#BB65FF"/>
</linearGradient>
</defs>
</svg>
