<svg width="763" height="167" viewBox="0 0 763 167" fill="none" xmlns="http://www.w3.org/2000/svg">
<g filter="url(#filter0_b_2344_52960)">
<path d="M0 15.84C0 8.45311 0 4.75967 2.25499 2.4327C2.31329 2.37253 2.37253 2.31329 2.4327 2.25499C4.75967 0 8.45311 0 15.84 0H747.16C754.547 0 758.24 0 760.567 2.25499C760.627 2.31329 760.687 2.37253 760.745 2.4327C763 4.75967 763 8.45311 763 15.84V167H0V15.84Z" fill="url(#paint0_radial_2344_52960)" fill-opacity="0.2"/>
<path d="M51.3075 93L45.0646 71.1818H50.1037L53.7152 86.3416H53.8963L57.8807 71.1818H62.1953L66.169 86.3736H66.3608L69.9723 71.1818H75.0114L68.7685 93H64.2727L60.1179 78.7351H59.9474L55.8033 93H51.3075ZM81.9334 83.5398V93H77.3951V71.1818H81.8056V79.5234H81.9973C82.3667 78.5575 82.9632 77.8011 83.7871 77.2543C84.611 76.7003 85.6444 76.4233 86.8873 76.4233C88.0236 76.4233 89.0144 76.6719 89.8596 77.169C90.7118 77.6591 91.3723 78.3658 91.8411 79.2891C92.3169 80.2053 92.5513 81.3026 92.5442 82.581V93H88.0059V83.3906C88.013 82.3821 87.7573 81.5973 87.2388 81.0362C86.7275 80.4751 86.0101 80.1946 85.0868 80.1946C84.4689 80.1946 83.9221 80.326 83.4462 80.5888C82.9775 80.8516 82.6081 81.2351 82.3382 81.7393C82.0755 82.2365 81.9405 82.8366 81.9334 83.5398ZM96.1158 93V76.6364H100.654V93H96.1158ZM98.3956 74.527C97.7209 74.527 97.142 74.3033 96.6591 73.8558C96.1832 73.4013 95.9453 72.858 95.9453 72.2259C95.9453 71.6009 96.1832 71.0646 96.6591 70.6172C97.142 70.1626 97.7209 69.9354 98.3956 69.9354C99.0703 69.9354 99.6456 70.1626 100.121 70.6172C100.604 71.0646 100.846 71.6009 100.846 72.2259C100.846 72.858 100.604 73.4013 100.121 73.8558C99.6456 74.3033 99.0703 74.527 98.3956 74.527ZM112.993 76.6364V80.0455H103.139V76.6364H112.993ZM105.376 72.7159H109.915V87.9716C109.915 88.3906 109.979 88.7173 110.106 88.9517C110.234 89.179 110.412 89.3388 110.639 89.4311C110.873 89.5234 111.143 89.5696 111.449 89.5696C111.662 89.5696 111.875 89.5518 112.088 89.5163C112.301 89.4737 112.464 89.4418 112.578 89.4205L113.292 92.7976C113.064 92.8686 112.745 92.9503 112.333 93.0426C111.921 93.142 111.42 93.2024 110.831 93.2237C109.737 93.2663 108.778 93.1207 107.954 92.7869C107.138 92.4531 106.502 91.9347 106.047 91.2315C105.593 90.5284 105.369 89.6406 105.376 88.5682V72.7159ZM123.231 93.3196C121.548 93.3196 120.099 92.9787 118.885 92.2969C117.677 91.608 116.747 90.6349 116.094 89.3778C115.44 88.1136 115.113 86.6186 115.113 84.8928C115.113 83.2095 115.44 81.7322 116.094 80.4609C116.747 79.1896 117.667 78.1989 118.853 77.4886C120.046 76.7784 121.445 76.4233 123.05 76.4233C124.13 76.4233 125.135 76.5973 126.065 76.9453C127.003 77.2862 127.819 77.8011 128.515 78.4901C129.219 79.179 129.765 80.0455 130.156 81.0895C130.547 82.1264 130.742 83.3409 130.742 84.733V85.9794H116.925V83.1669H126.47C126.47 82.5135 126.328 81.9347 126.044 81.4304C125.76 80.9261 125.366 80.532 124.861 80.2479C124.364 79.9567 123.785 79.8111 123.125 79.8111C122.436 79.8111 121.825 79.9709 121.292 80.2905C120.767 80.603 120.355 81.0256 120.057 81.5582C119.758 82.0838 119.606 82.6697 119.599 83.3161V85.9901C119.599 86.7997 119.748 87.4993 120.046 88.0888C120.351 88.6783 120.781 89.1328 121.335 89.4524C121.889 89.772 122.546 89.9318 123.306 89.9318C123.81 89.9318 124.272 89.8608 124.691 89.7188C125.11 89.5767 125.469 89.3636 125.767 89.0795C126.065 88.7955 126.292 88.4474 126.449 88.0355L130.646 88.3125C130.433 89.321 129.996 90.2017 129.336 90.9545C128.682 91.7003 127.837 92.2827 126.8 92.7017C125.77 93.1136 124.581 93.3196 123.231 93.3196ZM143.899 82.2401V85.8409H133.949V82.2401H143.899ZM152.305 71.1818V93H147.766V71.1818H152.305ZM160.606 93.3089C159.562 93.3089 158.632 93.1278 157.815 92.7656C156.998 92.3963 156.352 91.853 155.876 91.1357C155.407 90.4112 155.173 89.5092 155.173 88.4297C155.173 87.5206 155.34 86.7571 155.674 86.1392C156.007 85.5213 156.462 85.0241 157.037 84.6477C157.613 84.2713 158.266 83.9872 158.998 83.7955C159.736 83.6037 160.51 83.4688 161.32 83.3906C162.272 83.2912 163.039 83.1989 163.621 83.1136C164.203 83.0213 164.626 82.8864 164.889 82.7088C165.152 82.5312 165.283 82.2685 165.283 81.9205V81.8565C165.283 81.1818 165.07 80.6598 164.644 80.2905C164.225 79.9212 163.628 79.7365 162.854 79.7365C162.037 79.7365 161.387 79.9176 160.904 80.2798C160.422 80.6349 160.102 81.0824 159.946 81.6222L155.748 81.2812C155.961 80.2869 156.38 79.4276 157.005 78.7031C157.63 77.9716 158.436 77.4105 159.424 77.0199C160.418 76.6222 161.569 76.4233 162.875 76.4233C163.784 76.4233 164.654 76.5298 165.485 76.7429C166.324 76.956 167.066 77.2862 167.712 77.7337C168.365 78.1811 168.88 78.7564 169.257 79.4595C169.633 80.1555 169.821 80.9901 169.821 81.9631V93H165.517V90.7308H165.39C165.127 91.2422 164.775 91.6932 164.335 92.0838C163.895 92.4673 163.365 92.7692 162.748 92.9893C162.13 93.2024 161.416 93.3089 160.606 93.3089ZM161.906 90.1768C162.574 90.1768 163.163 90.0455 163.674 89.7827C164.186 89.5128 164.587 89.1506 164.878 88.696C165.169 88.2415 165.315 87.7266 165.315 87.1513V85.4148C165.173 85.5071 164.978 85.5923 164.729 85.6705C164.488 85.7415 164.214 85.8089 163.909 85.8729C163.603 85.9297 163.298 85.983 162.993 86.0327C162.687 86.0753 162.41 86.1143 162.162 86.1499C161.629 86.228 161.164 86.3523 160.766 86.5227C160.368 86.6932 160.059 86.924 159.839 87.2152C159.619 87.4993 159.509 87.8544 159.509 88.2805C159.509 88.8984 159.733 89.3707 160.18 89.6974C160.635 90.017 161.21 90.1768 161.906 90.1768ZM173.428 93V71.1818H177.966V79.3849H178.104C178.303 78.9446 178.591 78.4972 178.967 78.0426C179.351 77.581 179.848 77.1974 180.459 76.892C181.077 76.5795 181.844 76.4233 182.76 76.4233C183.953 76.4233 185.054 76.7358 186.062 77.3608C187.071 77.9787 187.877 78.9126 188.481 80.1626C189.085 81.4055 189.386 82.9645 189.386 84.8395C189.386 86.6648 189.092 88.206 188.502 89.4631C187.92 90.7131 187.124 91.6612 186.116 92.3075C185.114 92.9467 183.992 93.2663 182.749 93.2663C181.869 93.2663 181.119 93.1207 180.501 92.8295C179.891 92.5384 179.39 92.1726 178.999 91.7322C178.609 91.2848 178.31 90.8338 178.104 90.3793H177.902V93H173.428ZM177.87 84.8182C177.87 85.7912 178.005 86.6399 178.275 87.3643C178.545 88.0888 178.935 88.6534 179.447 89.0582C179.958 89.456 180.58 89.6548 181.311 89.6548C182.05 89.6548 182.675 89.4524 183.186 89.0476C183.697 88.6357 184.085 88.0675 184.347 87.343C184.617 86.6115 184.752 85.7699 184.752 84.8182C184.752 83.8736 184.621 83.0426 184.358 82.3253C184.095 81.608 183.708 81.0469 183.197 80.642C182.685 80.2372 182.057 80.0348 181.311 80.0348C180.572 80.0348 179.947 80.2301 179.436 80.6207C178.932 81.0114 178.545 81.5653 178.275 82.2827C178.005 83 177.87 83.8452 177.87 84.8182ZM199.872 93.3196C198.189 93.3196 196.74 92.9787 195.525 92.2969C194.318 91.608 193.388 90.6349 192.734 89.3778C192.081 88.1136 191.754 86.6186 191.754 84.8928C191.754 83.2095 192.081 81.7322 192.734 80.4609C193.388 79.1896 194.307 78.1989 195.493 77.4886C196.687 76.7784 198.086 76.4233 199.691 76.4233C200.77 76.4233 201.775 76.5973 202.706 76.9453C203.643 77.2862 204.46 77.8011 205.156 78.4901C205.859 79.179 206.406 80.0455 206.797 81.0895C207.187 82.1264 207.383 83.3409 207.383 84.733V85.9794H193.565V83.1669H203.111C203.111 82.5135 202.969 81.9347 202.684 81.4304C202.4 80.9261 202.006 80.532 201.502 80.2479C201.005 79.9567 200.426 79.8111 199.765 79.8111C199.077 79.8111 198.466 79.9709 197.933 80.2905C197.407 80.603 196.996 81.0256 196.697 81.5582C196.399 82.0838 196.246 82.6697 196.239 83.3161V85.9901C196.239 86.7997 196.388 87.4993 196.687 88.0888C196.992 88.6783 197.422 89.1328 197.976 89.4524C198.53 89.772 199.187 89.9318 199.947 89.9318C200.451 89.9318 200.912 89.8608 201.331 89.7188C201.751 89.5767 202.109 89.3636 202.407 89.0795C202.706 88.7955 202.933 88.4474 203.089 88.0355L207.287 88.3125C207.074 89.321 206.637 90.2017 205.976 90.9545C205.323 91.7003 204.478 92.2827 203.441 92.7017C202.411 93.1136 201.221 93.3196 199.872 93.3196ZM214.883 71.1818V93H210.344V71.1818H214.883ZM225.975 93.3196C224.292 93.3196 222.843 92.9787 221.629 92.2969C220.422 91.608 219.491 90.6349 218.838 89.3778C218.184 88.1136 217.858 86.6186 217.858 84.8928C217.858 83.2095 218.184 81.7322 218.838 80.4609C219.491 79.1896 220.411 78.1989 221.597 77.4886C222.79 76.7784 224.189 76.4233 225.794 76.4233C226.874 76.4233 227.879 76.5973 228.809 76.9453C229.747 77.2862 230.564 77.8011 231.26 78.4901C231.963 79.179 232.51 80.0455 232.9 81.0895C233.291 82.1264 233.486 83.3409 233.486 84.733V85.9794H219.669V83.1669H229.214C229.214 82.5135 229.072 81.9347 228.788 81.4304C228.504 80.9261 228.11 80.532 227.605 80.2479C227.108 79.9567 226.529 79.8111 225.869 79.8111C225.18 79.8111 224.569 79.9709 224.037 80.2905C223.511 80.603 223.099 81.0256 222.801 81.5582C222.502 82.0838 222.35 82.6697 222.343 83.3161V85.9901C222.343 86.7997 222.492 87.4993 222.79 88.0888C223.096 88.6783 223.525 89.1328 224.079 89.4524C224.633 89.772 225.29 89.9318 226.05 89.9318C226.554 89.9318 227.016 89.8608 227.435 89.7188C227.854 89.5767 228.213 89.3636 228.511 89.0795C228.809 88.7955 229.037 88.4474 229.193 88.0355L233.39 88.3125C233.177 89.321 232.74 90.2017 232.08 90.9545C231.426 91.7003 230.581 92.2827 229.544 92.7017C228.515 93.1136 227.325 93.3196 225.975 93.3196ZM242.478 93.2663C241.235 93.2663 240.109 92.9467 239.1 92.3075C238.099 91.6612 237.304 90.7131 236.714 89.4631C236.132 88.206 235.841 86.6648 235.841 84.8395C235.841 82.9645 236.142 81.4055 236.746 80.1626C237.35 78.9126 238.152 77.9787 239.154 77.3608C240.162 76.7358 241.267 76.4233 242.467 76.4233C243.383 76.4233 244.147 76.5795 244.757 76.892C245.375 77.1974 245.873 77.581 246.249 78.0426C246.632 78.4972 246.924 78.9446 247.123 79.3849H247.261V71.1818H251.789V93H247.314V90.3793H247.123C246.909 90.8338 246.608 91.2848 246.217 91.7322C245.833 92.1726 245.333 92.5384 244.715 92.8295C244.104 93.1207 243.358 93.2663 242.478 93.2663ZM243.916 89.6548C244.647 89.6548 245.265 89.456 245.77 89.0582C246.281 88.6534 246.672 88.0888 246.941 87.3643C247.218 86.6399 247.357 85.7912 247.357 84.8182C247.357 83.8452 247.222 83 246.952 82.2827C246.682 81.5653 246.292 81.0114 245.78 80.6207C245.269 80.2301 244.647 80.0348 243.916 80.0348C243.17 80.0348 242.542 80.2372 242.03 80.642C241.519 81.0469 241.132 81.608 240.869 82.3253C240.606 83.0426 240.475 83.8736 240.475 84.8182C240.475 85.7699 240.606 86.6115 240.869 87.343C241.139 88.0675 241.526 88.6357 242.03 89.0476C242.542 89.4524 243.17 89.6548 243.916 89.6548ZM267.46 93L261.217 71.1818H266.256L269.868 86.3416H270.049L274.033 71.1818H278.348L282.321 86.3736H282.513L286.125 71.1818H291.164L284.921 93H280.425L276.27 78.7351H276.1L271.956 93H267.46ZM296.456 93.3089C295.412 93.3089 294.481 93.1278 293.665 92.7656C292.848 92.3963 292.202 91.853 291.726 91.1357C291.257 90.4112 291.023 89.5092 291.023 88.4297C291.023 87.5206 291.189 86.7571 291.523 86.1392C291.857 85.5213 292.312 85.0241 292.887 84.6477C293.462 84.2713 294.116 83.9872 294.847 83.7955C295.586 83.6037 296.36 83.4688 297.17 83.3906C298.121 83.2912 298.888 83.1989 299.471 83.1136C300.053 83.0213 300.476 82.8864 300.738 82.7088C301.001 82.5312 301.133 82.2685 301.133 81.9205V81.8565C301.133 81.1818 300.92 80.6598 300.493 80.2905C300.074 79.9212 299.478 79.7365 298.704 79.7365C297.887 79.7365 297.237 79.9176 296.754 80.2798C296.271 80.6349 295.952 81.0824 295.795 81.6222L291.598 81.2812C291.811 80.2869 292.23 79.4276 292.855 78.7031C293.48 77.9716 294.286 77.4105 295.273 77.0199C296.268 76.6222 297.418 76.4233 298.725 76.4233C299.634 76.4233 300.504 76.5298 301.335 76.7429C302.173 76.956 302.915 77.2862 303.562 77.7337C304.215 78.1811 304.73 78.7564 305.106 79.4595C305.483 80.1555 305.671 80.9901 305.671 81.9631V93H301.367V90.7308H301.239C300.976 91.2422 300.625 91.6932 300.184 92.0838C299.744 92.4673 299.215 92.7692 298.597 92.9893C297.979 93.2024 297.265 93.3089 296.456 93.3089ZM297.756 90.1768C298.423 90.1768 299.013 90.0455 299.524 89.7827C300.035 89.5128 300.437 89.1506 300.728 88.696C301.019 88.2415 301.165 87.7266 301.165 87.1513V85.4148C301.023 85.5071 300.827 85.5923 300.579 85.6705C300.337 85.7415 300.064 85.8089 299.758 85.8729C299.453 85.9297 299.148 85.983 298.842 86.0327C298.537 86.0753 298.26 86.1143 298.011 86.1499C297.479 86.228 297.013 86.3523 296.616 86.5227C296.218 86.6932 295.909 86.924 295.689 87.2152C295.469 87.4993 295.358 87.8544 295.358 88.2805C295.358 88.8984 295.582 89.3707 296.03 89.6974C296.484 90.017 297.059 90.1768 297.756 90.1768ZM313.73 71.1818V93H309.192V71.1818H313.73ZM321.904 71.1818V93H317.366V71.1818H321.904ZM332.997 93.3196C331.314 93.3196 329.865 92.9787 328.65 92.2969C327.443 91.608 326.513 90.6349 325.859 89.3778C325.206 88.1136 324.879 86.6186 324.879 84.8928C324.879 83.2095 325.206 81.7322 325.859 80.4609C326.513 79.1896 327.432 78.1989 328.618 77.4886C329.812 76.7784 331.211 76.4233 332.816 76.4233C333.895 76.4233 334.9 76.5973 335.831 76.9453C336.768 77.2862 337.585 77.8011 338.281 78.4901C338.984 79.179 339.531 80.0455 339.922 81.0895C340.312 82.1264 340.508 83.3409 340.508 84.733V85.9794H326.69V83.1669H336.236C336.236 82.5135 336.094 81.9347 335.809 81.4304C335.525 80.9261 335.131 80.532 334.627 80.2479C334.13 79.9567 333.551 79.8111 332.89 79.8111C332.202 79.8111 331.591 79.9709 331.058 80.2905C330.532 80.603 330.121 81.0256 329.822 81.5582C329.524 82.0838 329.371 82.6697 329.364 83.3161V85.9901C329.364 86.7997 329.513 87.4993 329.812 88.0888C330.117 88.6783 330.547 89.1328 331.101 89.4524C331.655 89.772 332.312 89.9318 333.072 89.9318C333.576 89.9318 334.037 89.8608 334.456 89.7188C334.876 89.5767 335.234 89.3636 335.532 89.0795C335.831 88.7955 336.058 88.4474 336.214 88.0355L340.412 88.3125C340.199 89.321 339.762 90.2017 339.101 90.9545C338.448 91.7003 337.603 92.2827 336.566 92.7017C335.536 93.1136 334.346 93.3196 332.997 93.3196ZM352.173 76.6364V80.0455H342.319V76.6364H352.173ZM344.556 72.7159H349.094V87.9716C349.094 88.3906 349.158 88.7173 349.286 88.9517C349.414 89.179 349.591 89.3388 349.819 89.4311C350.053 89.5234 350.323 89.5696 350.628 89.5696C350.841 89.5696 351.055 89.5518 351.268 89.5163C351.481 89.4737 351.644 89.4418 351.758 89.4205L352.471 92.7976C352.244 92.8686 351.925 92.9503 351.513 93.0426C351.101 93.142 350.6 93.2024 350.01 93.2237C348.917 93.2663 347.958 93.1207 347.134 92.7869C346.317 92.4531 345.682 91.9347 345.227 91.2315C344.773 90.5284 344.549 89.6406 344.556 88.5682V72.7159ZM375.635 71.1818H380.248V85.3509C380.248 86.9418 379.868 88.3338 379.108 89.527C378.355 90.7202 377.3 91.6506 375.944 92.3182C374.587 92.9787 373.007 93.3089 371.203 93.3089C369.392 93.3089 367.808 92.9787 366.451 92.3182C365.095 91.6506 364.04 90.7202 363.287 89.527C362.534 88.3338 362.158 86.9418 362.158 85.3509V71.1818H366.771V84.9567C366.771 85.7876 366.952 86.5263 367.314 87.1726C367.684 87.8189 368.202 88.3267 368.87 88.696C369.537 89.0653 370.315 89.25 371.203 89.25C372.098 89.25 372.875 89.0653 373.536 88.696C374.203 88.3267 374.718 87.8189 375.081 87.1726C375.45 86.5263 375.635 85.7876 375.635 84.9567V71.1818ZM388.656 71.1818V93H384.043V71.1818H388.656Z" fill="#0A0B33"/>
</g>
<defs>
<filter id="filter0_b_2344_52960" x="-120" y="-120" width="1003" height="407" filterUnits="userSpaceOnUse" color-interpolation-filters="sRGB">
<feFlood flood-opacity="0" result="BackgroundImageFix"/>
<feGaussianBlur in="BackgroundImageFix" stdDeviation="60"/>
<feComposite in2="SourceAlpha" operator="in" result="effect1_backgroundBlur_2344_52960"/>
<feBlend mode="normal" in="SourceGraphic" in2="effect1_backgroundBlur_2344_52960" result="shape"/>
</filter>
<radialGradient id="paint0_radial_2344_52960" cx="0" cy="0" r="1" gradientUnits="userSpaceOnUse" gradientTransform="translate(388.98 167) rotate(-90) scale(157.093 717.737)">
<stop offset="0.238389" stop-color="#2CE6FF"/>
<stop offset="0.910952" stop-color="#7381FF"/>
</radialGradient>
</defs>
</svg>
