<svg width="104" height="104" viewBox="0 0 104 104" fill="none" xmlns="http://www.w3.org/2000/svg">
    <circle cx="51.6514" cy="51.6514" r="51.6514" fill="#131823" />
    <path
        d="M63.9418 33.124C66.5596 31.1618 70.1045 31.1618 72.7223 33.124L85.2526 42.516C87.8705 44.4782 88.9659 47.9563 87.966 51.1312L83.1798 66.3279C82.1799 69.5028 79.312 71.6523 76.0762 71.6523H60.5879C57.352 71.6523 54.4842 69.5028 53.4843 66.3279L48.6981 51.1312C47.6982 47.9563 48.7936 44.4782 51.4115 42.516L63.9418 33.124Z"
        fill="url(#paint0_linear_3847_3361)" />
    <g style="mix-blend-mode:overlay" opacity="0.5">
        <path
            d="M77.6119 61.7501L80.6032 51.9515C80.8293 51.2108 80.884 50.4446 80.7843 49.7083L73.1654 53.0981C72.557 53.367 71.8509 53.1002 71.5549 52.4895L69.4501 48.1465C68.9894 47.196 67.6747 47.196 67.214 48.1465L65.1091 52.4895C64.8131 53.1002 64.107 53.367 63.4987 53.0981L55.8798 49.7083C55.78 50.4446 55.8347 51.2108 56.0608 51.9515L59.0522 61.7501C59.6771 63.7972 61.4695 65.1832 63.4919 65.1832H73.1721C75.1945 65.1832 76.9869 63.7972 77.6119 61.7501Z"
            fill="white" />
    </g>
    <path opacity="0.5" fill-rule="evenodd" clip-rule="evenodd"
        d="M14.9707 53.1523C14.9707 51.7716 16.034 50.6523 17.3457 50.6523H42.5957C43.9074 50.6523 44.9707 51.7716 44.9707 53.1523C44.9707 54.5331 43.9074 55.6523 42.5957 55.6523H17.3457C16.034 55.6523 14.9707 54.5331 14.9707 53.1523Z"
        fill="#0364FF" />
    <path fill-rule="evenodd" clip-rule="evenodd"
        d="M26.9707 44.9857C26.9707 43.697 27.9855 42.6523 29.2374 42.6523H43.5707C44.8225 42.6523 45.8374 43.697 45.8374 44.9857C45.8374 46.2743 44.8225 47.319 43.5707 47.319H29.2374C27.9855 47.319 26.9707 46.2743 26.9707 44.9857ZM30.3707 61.319C30.3707 60.0303 31.3855 58.9857 32.6374 58.9857H44.704C45.9559 58.9857 46.9707 60.0303 46.9707 61.319C46.9707 62.6077 45.9559 63.6523 44.704 63.6523H32.6374C31.3855 63.6523 30.3707 62.6077 30.3707 61.319Z"
        fill="#4D92FF" />
    <defs>
        <linearGradient id="paint0_linear_3847_3361" x1="48.332" y1="31.6523" x2="88.332"
            y2="71.6523" gradientUnits="userSpaceOnUse">
            <stop offset="0.108859" stop-color="#66D4F7" />
            <stop offset="0.490968" stop-color="#4D92FF" />
            <stop offset="0.849761" stop-color="#BB65FF" />
        </linearGradient>
    </defs>
</svg>