<svg width="48" height="48" viewBox="0 0 48 48" fill="none" xmlns="http://www.w3.org/2000/svg">
<rect width="48" height="48" rx="8" fill="#E1EFFE"/>
<path d="M22.4002 15.6849C20.6557 14.8355 18.7404 14.3955 16.8002 14.3985C14.7922 14.3985 12.8914 14.8625 11.2002 15.6849V31.6849C12.9447 30.8356 14.86 30.3956 16.8002 30.3985C19.4706 30.3985 21.949 31.2145 24.0002 32.6145C26.1219 31.1668 28.6317 30.3944 31.2002 30.3985C33.2082 30.3985 35.109 30.8625 36.8002 31.6849V15.6849C35.0557 14.8355 33.1404 14.3955 31.2002 14.3985C29.1922 14.3985 27.2914 14.8625 25.6002 15.6849V27.1985C25.6002 27.6228 25.4316 28.0298 25.1316 28.3298C24.8315 28.6299 24.4245 28.7985 24.0002 28.7985C23.5758 28.7985 23.1689 28.6299 22.8688 28.3298C22.5688 28.0298 22.4002 27.6228 22.4002 27.1985V15.6849Z" fill="#0346FF"/>
</svg>
