<svg width="48" height="48" viewBox="0 0 48 48" fill="none" xmlns="http://www.w3.org/2000/svg">
<rect width="48" height="48" rx="8" fill="#E1EFFE"/>
<path fill-rule="evenodd" clip-rule="evenodd" d="M17.6004 11.1992C16.7517 11.1992 15.9378 11.5364 15.3376 12.1365C14.7375 12.7366 14.4004 13.5505 14.4004 14.3992V33.5992C14.4004 34.4479 14.7375 35.2618 15.3376 35.862C15.9378 36.4621 16.7517 36.7992 17.6004 36.7992H30.4004C31.2491 36.7992 32.063 36.4621 32.6631 35.862C33.2632 35.2618 33.6004 34.4479 33.6004 33.5992V19.8616C33.6002 19.013 33.2629 18.1992 32.6628 17.5992L27.2004 12.1368C26.6004 11.5367 25.7866 11.1994 24.938 11.1992H17.6004ZM25.6004 20.7992C25.6004 20.3749 25.4318 19.9679 25.1318 19.6678C24.8317 19.3678 24.4247 19.1992 24.0004 19.1992C23.576 19.1992 23.1691 19.3678 22.869 19.6678C22.569 19.9679 22.4004 20.3749 22.4004 20.7992V26.5368L20.3316 24.468C20.184 24.3152 20.0074 24.1933 19.8122 24.1095C19.617 24.0256 19.4071 23.9815 19.1946 23.9796C18.9822 23.9778 18.7715 24.0183 18.5749 24.0987C18.3782 24.1792 18.1996 24.298 18.0494 24.4482C17.8991 24.5984 17.7803 24.7771 17.6999 24.9737C17.6194 25.1703 17.5789 25.381 17.5808 25.5935C17.5826 25.8059 17.6268 26.0159 17.7106 26.2111C17.7945 26.4063 17.9164 26.5828 18.0692 26.7304L22.8692 31.5304C23.1692 31.8304 23.5761 31.9989 24.0004 31.9989C24.4247 31.9989 24.8315 31.8304 25.1316 31.5304L29.9316 26.7304C30.223 26.4287 30.3843 26.0245 30.3807 25.605C30.377 25.1855 30.2088 24.7842 29.9121 24.4875C29.6154 24.1909 29.2141 24.0226 28.7946 24.0189C28.3751 24.0153 27.971 24.1766 27.6692 24.468L25.6004 26.5368V20.7992Z" fill="#0346FF"/>
</svg>
