<svg width="48" height="48" viewBox="0 0 48 48" fill="none" xmlns="http://www.w3.org/2000/svg">
<rect width="48" height="48" rx="8" fill="#E1EFFE"/>
<path d="M14.5549 18.487C19.7684 13.395 28.2316 13.395 33.4451 18.487L34.0728 19.1045C34.336 19.3576 34.336 19.7727 34.0728 20.0258L31.9266 22.1213C31.795 22.2529 31.5824 22.2529 31.4508 22.1213L30.5903 21.2811C26.9459 17.7278 21.0541 17.7278 17.4097 21.2811L16.4885 22.182C16.3568 22.3137 16.1443 22.3137 16.0127 22.182L13.8665 20.0865C13.6033 19.8334 13.6033 19.4184 13.8665 19.1653L14.5549 18.487ZM37.8893 22.8198L39.8026 24.6825C40.0658 24.9356 40.0658 25.3507 39.8026 25.6037L31.1876 34.0163C30.9244 34.2694 30.4992 34.2694 30.2461 34.0163L24.1316 28.0435C24.0709 27.9827 23.9595 27.9827 23.8988 28.0435L17.7842 34.0163C17.521 34.2694 17.0959 34.2694 16.8428 34.0163L8.19741 25.6037C7.9342 25.3507 7.9342 24.9356 8.19741 24.6825L10.1107 22.8198C10.3739 22.5667 10.7991 22.5667 11.0522 22.8198L17.1667 28.7926C17.2275 28.8534 17.3388 28.8534 17.3996 28.7926L23.5141 22.8198C23.7773 22.5667 24.2025 22.5667 24.4556 22.8198L30.5701 28.7926C30.6308 28.8534 30.7422 28.8534 30.8029 28.7926L36.9174 22.8198C37.2009 22.5667 37.6261 22.5667 37.8893 22.8198Z" fill="#0346FF"/>
</svg>
